G04 EAGLE Gerber RS-274X export*
G75*
%MOMM*%
%FSLAX34Y34*%
%LPD*%
%INTop Copper*%
%IPPOS*%
%AMOC8*
5,1,8,0,0,1.08239X$1,22.5*%
G01*
%ADD10P,1.429621X8X292.500000*%
%ADD11P,1.429621X8X22.500000*%
%ADD12P,1.429621X8X202.500000*%
%ADD13P,1.429621X8X112.500000*%
%ADD14C,1.879600*%
%ADD15C,1.408000*%
%ADD16C,1.508000*%
%ADD17C,1.320800*%
%ADD18C,0.406400*%
%ADD19C,0.756400*%


D10*
X322580Y419100D03*
X322580Y393700D03*
D11*
X321310Y215900D03*
X346710Y215900D03*
D12*
X185420Y114300D03*
X160020Y114300D03*
D10*
X398780Y478790D03*
X398780Y453390D03*
X104140Y478790D03*
X104140Y453390D03*
D13*
X368300Y351790D03*
X368300Y427990D03*
X133350Y351790D03*
X133350Y427990D03*
D10*
X398780Y427990D03*
X398780Y351790D03*
X104140Y427990D03*
X104140Y351790D03*
D14*
X146050Y20320D03*
X146050Y45720D03*
X406400Y76200D03*
X469900Y368300D03*
X469900Y342900D03*
X469900Y317500D03*
X469900Y292100D03*
X469900Y266700D03*
X469900Y241300D03*
X469900Y215900D03*
X469900Y190500D03*
X469900Y165100D03*
X469900Y139700D03*
X25400Y241300D03*
X25400Y215900D03*
X25400Y190500D03*
X25400Y165100D03*
X25400Y139700D03*
X25400Y368300D03*
X25400Y342900D03*
X25400Y317500D03*
X25400Y292100D03*
X25400Y266700D03*
X25400Y63500D03*
X25400Y88900D03*
X25400Y38100D03*
X115570Y96520D03*
X115570Y71120D03*
X115570Y45720D03*
X115570Y20320D03*
D15*
X197250Y50800D03*
X222250Y50800D03*
X247250Y50800D03*
X197250Y17800D03*
X222250Y17800D03*
X247250Y17800D03*
D14*
X408940Y20320D03*
X383540Y20320D03*
X358140Y20320D03*
X332740Y20320D03*
X307340Y20320D03*
X281940Y20320D03*
X203200Y480060D03*
X228600Y480060D03*
X254000Y480060D03*
X279400Y480060D03*
X304800Y480060D03*
X444500Y101600D03*
X444500Y76200D03*
X444500Y50800D03*
X444500Y25400D03*
D16*
X432200Y467360D03*
X482200Y467360D03*
X68180Y467360D03*
X18180Y467360D03*
D14*
X406400Y101600D03*
D17*
X222504Y419100D02*
X209296Y419100D01*
X209296Y393700D02*
X222504Y393700D01*
X222504Y368300D02*
X209296Y368300D01*
X209296Y342900D02*
X222504Y342900D01*
X222504Y317500D02*
X209296Y317500D01*
X209296Y292100D02*
X222504Y292100D01*
X222504Y266700D02*
X209296Y266700D01*
X209296Y241300D02*
X222504Y241300D01*
X222504Y215900D02*
X209296Y215900D01*
X209296Y190500D02*
X222504Y190500D01*
X222504Y165100D02*
X209296Y165100D01*
X209296Y139700D02*
X222504Y139700D01*
X222504Y114300D02*
X209296Y114300D01*
X209296Y88900D02*
X222504Y88900D01*
X285496Y88900D02*
X298704Y88900D01*
X298704Y114300D02*
X285496Y114300D01*
X285496Y139700D02*
X298704Y139700D01*
X298704Y165100D02*
X285496Y165100D01*
X285496Y190500D02*
X298704Y190500D01*
X298704Y215900D02*
X285496Y215900D01*
X285496Y241300D02*
X298704Y241300D01*
X298704Y266700D02*
X285496Y266700D01*
X285496Y292100D02*
X298704Y292100D01*
X298704Y317500D02*
X285496Y317500D01*
X285496Y342900D02*
X298704Y342900D01*
X298704Y368300D02*
X285496Y368300D01*
X285496Y393700D02*
X298704Y393700D01*
X298704Y419100D02*
X285496Y419100D01*
D18*
X215900Y114300D02*
X185420Y114300D01*
X322580Y419100D02*
X322580Y439420D01*
X361950Y478790D01*
X398780Y478790D01*
X322580Y419100D02*
X292100Y419100D01*
X322580Y419100D02*
X350520Y419100D01*
X398780Y370840D02*
X398780Y351790D01*
X398780Y370840D02*
X350520Y419100D01*
X462280Y68580D02*
X444500Y50800D01*
X462280Y68580D02*
X462280Y110490D01*
X452120Y120650D01*
X452120Y147320D01*
X469900Y165100D01*
X231140Y480060D02*
X228600Y480060D01*
X231140Y480060D02*
X292100Y419100D01*
X228600Y480060D02*
X205740Y457200D01*
X127000Y457200D01*
D19*
X127000Y457200D03*
D18*
X247250Y50800D02*
X247250Y17800D01*
X340360Y38100D02*
X358140Y20320D01*
X259950Y38100D02*
X247250Y50800D01*
X259950Y38100D02*
X340360Y38100D01*
X384810Y453390D02*
X398780Y453390D01*
X384810Y453390D02*
X368300Y436880D01*
X368300Y427990D01*
X321310Y215900D02*
X292100Y215900D01*
X432200Y448710D02*
X432200Y467360D01*
X432200Y448710D02*
X411480Y427990D01*
X398780Y427990D01*
X269240Y419100D02*
X215900Y419100D01*
D19*
X269240Y419100D03*
D18*
X116840Y453390D02*
X104140Y453390D01*
X116840Y453390D02*
X133350Y436880D01*
X133350Y427990D01*
X68180Y451250D02*
X68180Y467360D01*
X91440Y427990D02*
X104140Y427990D01*
X91440Y427990D02*
X68180Y451250D01*
D19*
X168910Y363220D03*
D18*
X168910Y372110D01*
X113030Y427990D01*
X104140Y427990D01*
X292100Y165100D02*
X317500Y165100D01*
D19*
X317500Y165100D03*
X381000Y101600D03*
D18*
X406400Y101600D01*
X444500Y101600D01*
X317500Y139700D02*
X292100Y139700D01*
D19*
X317500Y139700D03*
X381000Y76200D03*
D18*
X406400Y76200D01*
X444500Y76200D01*
D19*
X271780Y57150D03*
D18*
X278130Y50800D02*
X320040Y50800D01*
X278130Y50800D02*
X271780Y57150D01*
D19*
X320040Y50800D03*
D18*
X63500Y368300D02*
X25400Y368300D01*
X63500Y368300D02*
X96520Y335280D01*
X157480Y335280D02*
X215900Y393700D01*
X157480Y335280D02*
X96520Y335280D01*
X41148Y327152D02*
X174752Y327152D01*
X41148Y327152D02*
X25400Y342900D01*
X174752Y327152D02*
X215900Y368300D01*
X190500Y317500D02*
X25400Y317500D01*
X190500Y317500D02*
X215900Y292100D01*
X215900Y88900D02*
X165100Y88900D01*
X68580Y185420D01*
X68580Y223520D01*
X25400Y266700D01*
X292100Y368300D02*
X334010Y368300D01*
X361950Y340360D01*
X363220Y339090D01*
X364490Y337820D01*
X405130Y337820D01*
X435610Y368300D01*
X469900Y368300D01*
X469900Y342900D02*
X430813Y342900D01*
X416335Y328422D01*
X353285Y328422D01*
X338807Y342900D01*
X292100Y342900D01*
X292100Y317500D02*
X469900Y317500D01*
X469900Y292100D02*
X292100Y292100D01*
X292100Y266700D02*
X469900Y266700D01*
X469900Y241300D02*
X292100Y241300D01*
X292100Y88900D02*
X279400Y76200D01*
X163830Y76200D01*
X59690Y180340D01*
X59690Y207010D01*
X25400Y241300D01*
X292100Y114300D02*
X330200Y114300D01*
X431800Y215900D01*
X469900Y215900D01*
X238760Y67310D02*
X222250Y50800D01*
X238760Y67310D02*
X308610Y67310D01*
X431800Y190500D01*
X469900Y190500D01*
X49784Y191530D02*
X25414Y215900D01*
X25400Y215900D01*
X49784Y191530D02*
X49784Y87884D01*
X115570Y71120D02*
X119888Y66802D01*
X206248Y66802D01*
X222250Y50800D01*
X222250Y17800D01*
X107950Y63500D02*
X25400Y63500D01*
X107950Y63500D02*
X115570Y71120D01*
X49784Y87884D02*
X25400Y63500D01*
X25400Y292100D02*
X114300Y292100D01*
X215900Y190500D01*
M02*
