G04 EAGLE Gerber RS-274X export*
G75*
%MOMM*%
%FSLAX34Y34*%
%LPD*%
%INSilkscreen Bottom*%
%IPPOS*%
%AMOC8*
5,1,8,0,0,1.08239X$1,22.5*%
G01*
%ADD10C,0.152400*%


D10*
X452628Y369203D02*
X448112Y369203D01*
X448112Y369204D02*
X447979Y369202D01*
X447847Y369196D01*
X447715Y369186D01*
X447583Y369173D01*
X447451Y369155D01*
X447321Y369134D01*
X447190Y369109D01*
X447061Y369080D01*
X446933Y369047D01*
X446805Y369011D01*
X446679Y368971D01*
X446554Y368927D01*
X446430Y368879D01*
X446308Y368828D01*
X446187Y368773D01*
X446068Y368715D01*
X445950Y368653D01*
X445835Y368588D01*
X445721Y368519D01*
X445610Y368448D01*
X445501Y368372D01*
X445394Y368294D01*
X445289Y368213D01*
X445187Y368128D01*
X445087Y368041D01*
X444990Y367951D01*
X444895Y367858D01*
X444804Y367762D01*
X444715Y367664D01*
X444629Y367563D01*
X444546Y367459D01*
X444466Y367353D01*
X444390Y367245D01*
X444316Y367135D01*
X444246Y367022D01*
X444179Y366908D01*
X444116Y366791D01*
X444056Y366673D01*
X443999Y366553D01*
X443946Y366431D01*
X443897Y366308D01*
X443851Y366184D01*
X443809Y366058D01*
X443771Y365931D01*
X443736Y365803D01*
X443705Y365674D01*
X443678Y365545D01*
X443655Y365414D01*
X443635Y365283D01*
X443620Y365151D01*
X443608Y365019D01*
X443600Y364887D01*
X443596Y364754D01*
X443596Y364622D01*
X443600Y364489D01*
X443608Y364357D01*
X443620Y364225D01*
X443635Y364093D01*
X443655Y363962D01*
X443678Y363831D01*
X443705Y363702D01*
X443736Y363573D01*
X443771Y363445D01*
X443809Y363318D01*
X443851Y363192D01*
X443897Y363068D01*
X443946Y362945D01*
X443999Y362823D01*
X444056Y362703D01*
X444116Y362585D01*
X444179Y362468D01*
X444246Y362354D01*
X444316Y362241D01*
X444390Y362131D01*
X444466Y362023D01*
X444546Y361917D01*
X444629Y361813D01*
X444715Y361712D01*
X444804Y361614D01*
X444895Y361518D01*
X444990Y361425D01*
X445087Y361335D01*
X445187Y361248D01*
X445289Y361163D01*
X445394Y361082D01*
X445501Y361004D01*
X445610Y360928D01*
X445721Y360857D01*
X445835Y360788D01*
X445950Y360723D01*
X446068Y360661D01*
X446187Y360603D01*
X446308Y360548D01*
X446430Y360497D01*
X446554Y360449D01*
X446679Y360405D01*
X446805Y360365D01*
X446933Y360329D01*
X447061Y360296D01*
X447190Y360267D01*
X447321Y360242D01*
X447451Y360221D01*
X447583Y360203D01*
X447715Y360190D01*
X447847Y360180D01*
X447979Y360174D01*
X448112Y360172D01*
X452628Y360172D01*
X452628Y376428D01*
X448112Y376428D01*
X447993Y376426D01*
X447873Y376420D01*
X447754Y376410D01*
X447636Y376396D01*
X447517Y376379D01*
X447400Y376357D01*
X447283Y376332D01*
X447168Y376302D01*
X447053Y376269D01*
X446939Y376232D01*
X446827Y376192D01*
X446716Y376147D01*
X446607Y376099D01*
X446499Y376048D01*
X446393Y375993D01*
X446289Y375934D01*
X446187Y375872D01*
X446087Y375807D01*
X445989Y375738D01*
X445893Y375666D01*
X445800Y375591D01*
X445710Y375514D01*
X445622Y375433D01*
X445537Y375349D01*
X445455Y375262D01*
X445375Y375173D01*
X445299Y375081D01*
X445225Y374987D01*
X445155Y374890D01*
X445088Y374792D01*
X445024Y374691D01*
X444964Y374587D01*
X444907Y374482D01*
X444854Y374375D01*
X444804Y374267D01*
X444758Y374157D01*
X444716Y374045D01*
X444677Y373932D01*
X444642Y373818D01*
X444611Y373703D01*
X444583Y373586D01*
X444560Y373469D01*
X444540Y373352D01*
X444524Y373233D01*
X444512Y373114D01*
X444504Y372995D01*
X444500Y372876D01*
X444500Y372756D01*
X444504Y372637D01*
X444512Y372518D01*
X444524Y372399D01*
X444540Y372280D01*
X444560Y372163D01*
X444583Y372046D01*
X444611Y371929D01*
X444642Y371814D01*
X444677Y371700D01*
X444716Y371587D01*
X444758Y371475D01*
X444804Y371365D01*
X444854Y371257D01*
X444907Y371150D01*
X444964Y371045D01*
X445024Y370941D01*
X445088Y370840D01*
X445155Y370742D01*
X445225Y370645D01*
X445299Y370551D01*
X445375Y370459D01*
X445455Y370370D01*
X445537Y370283D01*
X445622Y370199D01*
X445710Y370118D01*
X445800Y370041D01*
X445893Y369966D01*
X445989Y369894D01*
X446087Y369825D01*
X446187Y369760D01*
X446289Y369698D01*
X446393Y369639D01*
X446499Y369584D01*
X446607Y369533D01*
X446716Y369485D01*
X446827Y369440D01*
X446939Y369400D01*
X447053Y369363D01*
X447168Y369330D01*
X447283Y369300D01*
X447400Y369275D01*
X447517Y369253D01*
X447636Y369236D01*
X447754Y369222D01*
X447873Y369212D01*
X447993Y369206D01*
X448112Y369204D01*
X437729Y372816D02*
X433213Y376428D01*
X433213Y360172D01*
X428698Y360172D02*
X437729Y360172D01*
X422098Y360172D02*
X416679Y360172D01*
X416561Y360174D01*
X416443Y360180D01*
X416325Y360189D01*
X416208Y360203D01*
X416091Y360220D01*
X415974Y360241D01*
X415859Y360266D01*
X415744Y360295D01*
X415630Y360328D01*
X415518Y360364D01*
X415407Y360404D01*
X415297Y360447D01*
X415188Y360494D01*
X415081Y360544D01*
X414976Y360599D01*
X414873Y360656D01*
X414772Y360717D01*
X414672Y360781D01*
X414575Y360848D01*
X414480Y360918D01*
X414388Y360992D01*
X414297Y361068D01*
X414210Y361148D01*
X414125Y361230D01*
X414043Y361315D01*
X413963Y361402D01*
X413887Y361493D01*
X413813Y361585D01*
X413743Y361680D01*
X413676Y361777D01*
X413612Y361877D01*
X413551Y361978D01*
X413494Y362081D01*
X413439Y362186D01*
X413389Y362293D01*
X413342Y362402D01*
X413299Y362512D01*
X413259Y362623D01*
X413223Y362735D01*
X413190Y362849D01*
X413161Y362964D01*
X413136Y363079D01*
X413115Y363196D01*
X413098Y363313D01*
X413084Y363430D01*
X413075Y363548D01*
X413069Y363666D01*
X413067Y363784D01*
X413066Y363784D02*
X413066Y365591D01*
X413067Y365591D02*
X413069Y365709D01*
X413075Y365827D01*
X413084Y365945D01*
X413098Y366062D01*
X413115Y366179D01*
X413136Y366296D01*
X413161Y366411D01*
X413190Y366526D01*
X413223Y366640D01*
X413259Y366752D01*
X413299Y366863D01*
X413342Y366973D01*
X413389Y367082D01*
X413439Y367189D01*
X413494Y367294D01*
X413551Y367397D01*
X413612Y367498D01*
X413676Y367598D01*
X413743Y367695D01*
X413813Y367790D01*
X413887Y367882D01*
X413963Y367973D01*
X414043Y368060D01*
X414125Y368145D01*
X414210Y368227D01*
X414297Y368307D01*
X414388Y368383D01*
X414480Y368457D01*
X414575Y368527D01*
X414672Y368594D01*
X414772Y368658D01*
X414873Y368719D01*
X414976Y368776D01*
X415081Y368831D01*
X415188Y368881D01*
X415297Y368928D01*
X415407Y368971D01*
X415518Y369011D01*
X415630Y369047D01*
X415744Y369080D01*
X415859Y369109D01*
X415974Y369134D01*
X416091Y369155D01*
X416208Y369172D01*
X416325Y369186D01*
X416443Y369195D01*
X416561Y369201D01*
X416679Y369203D01*
X422098Y369203D01*
X422098Y376428D01*
X413066Y376428D01*
X448112Y216803D02*
X452628Y216803D01*
X448112Y216804D02*
X447979Y216802D01*
X447847Y216796D01*
X447715Y216786D01*
X447583Y216773D01*
X447451Y216755D01*
X447321Y216734D01*
X447190Y216709D01*
X447061Y216680D01*
X446933Y216647D01*
X446805Y216611D01*
X446679Y216571D01*
X446554Y216527D01*
X446430Y216479D01*
X446308Y216428D01*
X446187Y216373D01*
X446068Y216315D01*
X445950Y216253D01*
X445835Y216188D01*
X445721Y216119D01*
X445610Y216048D01*
X445501Y215972D01*
X445394Y215894D01*
X445289Y215813D01*
X445187Y215728D01*
X445087Y215641D01*
X444990Y215551D01*
X444895Y215458D01*
X444804Y215362D01*
X444715Y215264D01*
X444629Y215163D01*
X444546Y215059D01*
X444466Y214953D01*
X444390Y214845D01*
X444316Y214735D01*
X444246Y214622D01*
X444179Y214508D01*
X444116Y214391D01*
X444056Y214273D01*
X443999Y214153D01*
X443946Y214031D01*
X443897Y213908D01*
X443851Y213784D01*
X443809Y213658D01*
X443771Y213531D01*
X443736Y213403D01*
X443705Y213274D01*
X443678Y213145D01*
X443655Y213014D01*
X443635Y212883D01*
X443620Y212751D01*
X443608Y212619D01*
X443600Y212487D01*
X443596Y212354D01*
X443596Y212222D01*
X443600Y212089D01*
X443608Y211957D01*
X443620Y211825D01*
X443635Y211693D01*
X443655Y211562D01*
X443678Y211431D01*
X443705Y211302D01*
X443736Y211173D01*
X443771Y211045D01*
X443809Y210918D01*
X443851Y210792D01*
X443897Y210668D01*
X443946Y210545D01*
X443999Y210423D01*
X444056Y210303D01*
X444116Y210185D01*
X444179Y210068D01*
X444246Y209954D01*
X444316Y209841D01*
X444390Y209731D01*
X444466Y209623D01*
X444546Y209517D01*
X444629Y209413D01*
X444715Y209312D01*
X444804Y209214D01*
X444895Y209118D01*
X444990Y209025D01*
X445087Y208935D01*
X445187Y208848D01*
X445289Y208763D01*
X445394Y208682D01*
X445501Y208604D01*
X445610Y208528D01*
X445721Y208457D01*
X445835Y208388D01*
X445950Y208323D01*
X446068Y208261D01*
X446187Y208203D01*
X446308Y208148D01*
X446430Y208097D01*
X446554Y208049D01*
X446679Y208005D01*
X446805Y207965D01*
X446933Y207929D01*
X447061Y207896D01*
X447190Y207867D01*
X447321Y207842D01*
X447451Y207821D01*
X447583Y207803D01*
X447715Y207790D01*
X447847Y207780D01*
X447979Y207774D01*
X448112Y207772D01*
X452628Y207772D01*
X452628Y224028D01*
X448112Y224028D01*
X447993Y224026D01*
X447873Y224020D01*
X447754Y224010D01*
X447636Y223996D01*
X447517Y223979D01*
X447400Y223957D01*
X447283Y223932D01*
X447168Y223902D01*
X447053Y223869D01*
X446939Y223832D01*
X446827Y223792D01*
X446716Y223747D01*
X446607Y223699D01*
X446499Y223648D01*
X446393Y223593D01*
X446289Y223534D01*
X446187Y223472D01*
X446087Y223407D01*
X445989Y223338D01*
X445893Y223266D01*
X445800Y223191D01*
X445710Y223114D01*
X445622Y223033D01*
X445537Y222949D01*
X445455Y222862D01*
X445375Y222773D01*
X445299Y222681D01*
X445225Y222587D01*
X445155Y222490D01*
X445088Y222392D01*
X445024Y222291D01*
X444964Y222187D01*
X444907Y222082D01*
X444854Y221975D01*
X444804Y221867D01*
X444758Y221757D01*
X444716Y221645D01*
X444677Y221532D01*
X444642Y221418D01*
X444611Y221303D01*
X444583Y221186D01*
X444560Y221069D01*
X444540Y220952D01*
X444524Y220833D01*
X444512Y220714D01*
X444504Y220595D01*
X444500Y220476D01*
X444500Y220356D01*
X444504Y220237D01*
X444512Y220118D01*
X444524Y219999D01*
X444540Y219880D01*
X444560Y219763D01*
X444583Y219646D01*
X444611Y219529D01*
X444642Y219414D01*
X444677Y219300D01*
X444716Y219187D01*
X444758Y219075D01*
X444804Y218965D01*
X444854Y218857D01*
X444907Y218750D01*
X444964Y218645D01*
X445024Y218541D01*
X445088Y218440D01*
X445155Y218342D01*
X445225Y218245D01*
X445299Y218151D01*
X445375Y218059D01*
X445455Y217970D01*
X445537Y217883D01*
X445622Y217799D01*
X445710Y217718D01*
X445800Y217641D01*
X445893Y217566D01*
X445989Y217494D01*
X446087Y217425D01*
X446187Y217360D01*
X446289Y217298D01*
X446393Y217239D01*
X446499Y217184D01*
X446607Y217133D01*
X446716Y217085D01*
X446827Y217040D01*
X446939Y217000D01*
X447053Y216963D01*
X447168Y216930D01*
X447283Y216900D01*
X447400Y216875D01*
X447517Y216853D01*
X447636Y216836D01*
X447754Y216822D01*
X447873Y216812D01*
X447993Y216806D01*
X448112Y216804D01*
X437729Y222222D02*
X437729Y224028D01*
X428698Y224028D01*
X433213Y207772D01*
X452628Y198628D02*
X447209Y182372D01*
X441791Y198628D01*
X434704Y198628D02*
X434704Y182372D01*
X432898Y182372D02*
X436511Y182372D01*
X436511Y198628D02*
X432898Y198628D01*
X426194Y198628D02*
X426194Y182372D01*
X417163Y182372D02*
X426194Y198628D01*
X417163Y198628D02*
X417163Y182372D01*
X448112Y156972D02*
X452628Y156972D01*
X448112Y156972D02*
X447979Y156974D01*
X447847Y156980D01*
X447715Y156990D01*
X447583Y157003D01*
X447451Y157021D01*
X447321Y157042D01*
X447190Y157067D01*
X447061Y157096D01*
X446933Y157129D01*
X446805Y157165D01*
X446679Y157205D01*
X446554Y157249D01*
X446430Y157297D01*
X446308Y157348D01*
X446187Y157403D01*
X446068Y157461D01*
X445950Y157523D01*
X445835Y157588D01*
X445721Y157657D01*
X445610Y157728D01*
X445501Y157804D01*
X445394Y157882D01*
X445289Y157963D01*
X445187Y158048D01*
X445087Y158135D01*
X444990Y158225D01*
X444895Y158318D01*
X444804Y158414D01*
X444715Y158512D01*
X444629Y158613D01*
X444546Y158717D01*
X444466Y158823D01*
X444390Y158931D01*
X444316Y159041D01*
X444246Y159154D01*
X444179Y159268D01*
X444116Y159385D01*
X444056Y159503D01*
X443999Y159623D01*
X443946Y159745D01*
X443897Y159868D01*
X443851Y159992D01*
X443809Y160118D01*
X443771Y160245D01*
X443736Y160373D01*
X443705Y160502D01*
X443678Y160631D01*
X443655Y160762D01*
X443635Y160893D01*
X443620Y161025D01*
X443608Y161157D01*
X443600Y161289D01*
X443596Y161422D01*
X443596Y161554D01*
X443600Y161687D01*
X443608Y161819D01*
X443620Y161951D01*
X443635Y162083D01*
X443655Y162214D01*
X443678Y162345D01*
X443705Y162474D01*
X443736Y162603D01*
X443771Y162731D01*
X443809Y162858D01*
X443851Y162984D01*
X443897Y163108D01*
X443946Y163231D01*
X443999Y163353D01*
X444056Y163473D01*
X444116Y163591D01*
X444179Y163708D01*
X444246Y163822D01*
X444316Y163935D01*
X444390Y164045D01*
X444466Y164153D01*
X444546Y164259D01*
X444629Y164363D01*
X444715Y164464D01*
X444804Y164562D01*
X444895Y164658D01*
X444990Y164751D01*
X445087Y164841D01*
X445187Y164928D01*
X445289Y165013D01*
X445394Y165094D01*
X445501Y165172D01*
X445610Y165248D01*
X445721Y165319D01*
X445835Y165388D01*
X445950Y165453D01*
X446068Y165515D01*
X446187Y165573D01*
X446308Y165628D01*
X446430Y165679D01*
X446554Y165727D01*
X446679Y165771D01*
X446805Y165811D01*
X446933Y165847D01*
X447061Y165880D01*
X447190Y165909D01*
X447321Y165934D01*
X447451Y165955D01*
X447583Y165973D01*
X447715Y165986D01*
X447847Y165996D01*
X447979Y166002D01*
X448112Y166004D01*
X447209Y173228D02*
X452628Y173228D01*
X447209Y173228D02*
X447090Y173226D01*
X446970Y173220D01*
X446851Y173210D01*
X446733Y173196D01*
X446614Y173179D01*
X446497Y173157D01*
X446380Y173132D01*
X446265Y173102D01*
X446150Y173069D01*
X446036Y173032D01*
X445924Y172992D01*
X445813Y172947D01*
X445704Y172899D01*
X445596Y172848D01*
X445490Y172793D01*
X445386Y172734D01*
X445284Y172672D01*
X445184Y172607D01*
X445086Y172538D01*
X444990Y172466D01*
X444897Y172391D01*
X444807Y172314D01*
X444719Y172233D01*
X444634Y172149D01*
X444552Y172062D01*
X444472Y171973D01*
X444396Y171881D01*
X444322Y171787D01*
X444252Y171690D01*
X444185Y171592D01*
X444121Y171491D01*
X444061Y171387D01*
X444004Y171282D01*
X443951Y171175D01*
X443901Y171067D01*
X443855Y170957D01*
X443813Y170845D01*
X443774Y170732D01*
X443739Y170618D01*
X443708Y170503D01*
X443680Y170386D01*
X443657Y170269D01*
X443637Y170152D01*
X443621Y170033D01*
X443609Y169914D01*
X443601Y169795D01*
X443597Y169676D01*
X443597Y169556D01*
X443601Y169437D01*
X443609Y169318D01*
X443621Y169199D01*
X443637Y169080D01*
X443657Y168963D01*
X443680Y168846D01*
X443708Y168729D01*
X443739Y168614D01*
X443774Y168500D01*
X443813Y168387D01*
X443855Y168275D01*
X443901Y168165D01*
X443951Y168057D01*
X444004Y167950D01*
X444061Y167845D01*
X444121Y167741D01*
X444185Y167640D01*
X444252Y167542D01*
X444322Y167445D01*
X444396Y167351D01*
X444472Y167259D01*
X444552Y167170D01*
X444634Y167083D01*
X444719Y166999D01*
X444807Y166918D01*
X444897Y166841D01*
X444990Y166766D01*
X445086Y166694D01*
X445184Y166625D01*
X445284Y166560D01*
X445386Y166498D01*
X445490Y166439D01*
X445596Y166384D01*
X445704Y166333D01*
X445813Y166285D01*
X445924Y166240D01*
X446036Y166200D01*
X446150Y166163D01*
X446265Y166130D01*
X446380Y166100D01*
X446497Y166075D01*
X446614Y166053D01*
X446733Y166036D01*
X446851Y166022D01*
X446970Y166012D01*
X447090Y166006D01*
X447209Y166004D01*
X447209Y166003D02*
X450822Y166003D01*
X437900Y173228D02*
X432481Y156972D01*
X427063Y173228D01*
X421366Y156972D02*
X416850Y156972D01*
X416717Y156974D01*
X416585Y156980D01*
X416453Y156990D01*
X416321Y157003D01*
X416189Y157021D01*
X416059Y157042D01*
X415928Y157067D01*
X415799Y157096D01*
X415671Y157129D01*
X415543Y157165D01*
X415417Y157205D01*
X415292Y157249D01*
X415168Y157297D01*
X415046Y157348D01*
X414925Y157403D01*
X414806Y157461D01*
X414688Y157523D01*
X414573Y157588D01*
X414459Y157657D01*
X414348Y157728D01*
X414239Y157804D01*
X414132Y157882D01*
X414027Y157963D01*
X413925Y158048D01*
X413825Y158135D01*
X413728Y158225D01*
X413633Y158318D01*
X413542Y158414D01*
X413453Y158512D01*
X413367Y158613D01*
X413284Y158717D01*
X413204Y158823D01*
X413128Y158931D01*
X413054Y159041D01*
X412984Y159154D01*
X412917Y159268D01*
X412854Y159385D01*
X412794Y159503D01*
X412737Y159623D01*
X412684Y159745D01*
X412635Y159868D01*
X412589Y159992D01*
X412547Y160118D01*
X412509Y160245D01*
X412474Y160373D01*
X412443Y160502D01*
X412416Y160631D01*
X412393Y160762D01*
X412373Y160893D01*
X412358Y161025D01*
X412346Y161157D01*
X412338Y161289D01*
X412334Y161422D01*
X412334Y161554D01*
X412338Y161687D01*
X412346Y161819D01*
X412358Y161951D01*
X412373Y162083D01*
X412393Y162214D01*
X412416Y162345D01*
X412443Y162474D01*
X412474Y162603D01*
X412509Y162731D01*
X412547Y162858D01*
X412589Y162984D01*
X412635Y163108D01*
X412684Y163231D01*
X412737Y163353D01*
X412794Y163473D01*
X412854Y163591D01*
X412917Y163708D01*
X412984Y163822D01*
X413054Y163935D01*
X413128Y164045D01*
X413204Y164153D01*
X413284Y164259D01*
X413367Y164363D01*
X413453Y164464D01*
X413542Y164562D01*
X413633Y164658D01*
X413728Y164751D01*
X413825Y164841D01*
X413925Y164928D01*
X414027Y165013D01*
X414132Y165094D01*
X414239Y165172D01*
X414348Y165248D01*
X414459Y165319D01*
X414573Y165388D01*
X414688Y165453D01*
X414806Y165515D01*
X414925Y165573D01*
X415046Y165628D01*
X415168Y165679D01*
X415292Y165727D01*
X415417Y165771D01*
X415543Y165811D01*
X415671Y165847D01*
X415799Y165880D01*
X415928Y165909D01*
X416059Y165934D01*
X416189Y165955D01*
X416321Y165973D01*
X416453Y165986D01*
X416585Y165996D01*
X416717Y166002D01*
X416850Y166004D01*
X415947Y173228D02*
X421366Y173228D01*
X415947Y173228D02*
X415828Y173226D01*
X415708Y173220D01*
X415589Y173210D01*
X415471Y173196D01*
X415352Y173179D01*
X415235Y173157D01*
X415118Y173132D01*
X415003Y173102D01*
X414888Y173069D01*
X414774Y173032D01*
X414662Y172992D01*
X414551Y172947D01*
X414442Y172899D01*
X414334Y172848D01*
X414228Y172793D01*
X414124Y172734D01*
X414022Y172672D01*
X413922Y172607D01*
X413824Y172538D01*
X413728Y172466D01*
X413635Y172391D01*
X413545Y172314D01*
X413457Y172233D01*
X413372Y172149D01*
X413290Y172062D01*
X413210Y171973D01*
X413134Y171881D01*
X413060Y171787D01*
X412990Y171690D01*
X412923Y171592D01*
X412859Y171491D01*
X412799Y171387D01*
X412742Y171282D01*
X412689Y171175D01*
X412639Y171067D01*
X412593Y170957D01*
X412551Y170845D01*
X412512Y170732D01*
X412477Y170618D01*
X412446Y170503D01*
X412418Y170386D01*
X412395Y170269D01*
X412375Y170152D01*
X412359Y170033D01*
X412347Y169914D01*
X412339Y169795D01*
X412335Y169676D01*
X412335Y169556D01*
X412339Y169437D01*
X412347Y169318D01*
X412359Y169199D01*
X412375Y169080D01*
X412395Y168963D01*
X412418Y168846D01*
X412446Y168729D01*
X412477Y168614D01*
X412512Y168500D01*
X412551Y168387D01*
X412593Y168275D01*
X412639Y168165D01*
X412689Y168057D01*
X412742Y167950D01*
X412799Y167845D01*
X412859Y167741D01*
X412923Y167640D01*
X412990Y167542D01*
X413060Y167445D01*
X413134Y167351D01*
X413210Y167259D01*
X413290Y167170D01*
X413372Y167083D01*
X413457Y166999D01*
X413545Y166918D01*
X413635Y166841D01*
X413728Y166766D01*
X413824Y166694D01*
X413922Y166625D01*
X414022Y166560D01*
X414124Y166498D01*
X414228Y166439D01*
X414334Y166384D01*
X414442Y166333D01*
X414551Y166285D01*
X414662Y166240D01*
X414774Y166200D01*
X414888Y166163D01*
X415003Y166130D01*
X415118Y166100D01*
X415235Y166075D01*
X415352Y166053D01*
X415471Y166036D01*
X415589Y166022D01*
X415708Y166012D01*
X415828Y166006D01*
X415947Y166004D01*
X415947Y166003D02*
X419559Y166003D01*
X446137Y139333D02*
X448846Y139333D01*
X446137Y139333D02*
X446137Y130302D01*
X451556Y130302D01*
X451674Y130304D01*
X451792Y130310D01*
X451910Y130319D01*
X452027Y130333D01*
X452144Y130350D01*
X452261Y130371D01*
X452376Y130396D01*
X452491Y130425D01*
X452605Y130458D01*
X452717Y130494D01*
X452828Y130534D01*
X452938Y130577D01*
X453047Y130624D01*
X453154Y130674D01*
X453259Y130729D01*
X453362Y130786D01*
X453463Y130847D01*
X453563Y130911D01*
X453660Y130978D01*
X453755Y131048D01*
X453847Y131122D01*
X453938Y131198D01*
X454025Y131278D01*
X454110Y131360D01*
X454192Y131445D01*
X454272Y131532D01*
X454348Y131623D01*
X454422Y131715D01*
X454492Y131810D01*
X454559Y131907D01*
X454623Y132007D01*
X454684Y132108D01*
X454741Y132211D01*
X454796Y132316D01*
X454846Y132423D01*
X454893Y132532D01*
X454936Y132642D01*
X454976Y132753D01*
X455012Y132865D01*
X455045Y132979D01*
X455074Y133094D01*
X455099Y133209D01*
X455120Y133326D01*
X455137Y133443D01*
X455151Y133560D01*
X455160Y133678D01*
X455166Y133796D01*
X455168Y133914D01*
X455168Y142946D01*
X455166Y143064D01*
X455160Y143182D01*
X455151Y143300D01*
X455137Y143417D01*
X455120Y143534D01*
X455099Y143651D01*
X455074Y143766D01*
X455045Y143881D01*
X455012Y143995D01*
X454976Y144107D01*
X454936Y144218D01*
X454893Y144328D01*
X454846Y144437D01*
X454796Y144544D01*
X454741Y144649D01*
X454684Y144752D01*
X454623Y144853D01*
X454559Y144953D01*
X454492Y145050D01*
X454422Y145145D01*
X454348Y145237D01*
X454272Y145328D01*
X454192Y145415D01*
X454110Y145500D01*
X454025Y145582D01*
X453938Y145662D01*
X453847Y145738D01*
X453755Y145812D01*
X453660Y145882D01*
X453563Y145949D01*
X453463Y146013D01*
X453362Y146074D01*
X453259Y146131D01*
X453154Y146186D01*
X453047Y146236D01*
X452938Y146283D01*
X452828Y146326D01*
X452717Y146366D01*
X452605Y146402D01*
X452491Y146435D01*
X452376Y146464D01*
X452261Y146489D01*
X452144Y146510D01*
X452027Y146527D01*
X451910Y146541D01*
X451792Y146550D01*
X451674Y146556D01*
X451556Y146558D01*
X446137Y146558D01*
X438495Y146558D02*
X438495Y130302D01*
X429464Y130302D02*
X438495Y146558D01*
X429464Y146558D02*
X429464Y130302D01*
X421821Y130302D02*
X421821Y146558D01*
X417306Y146558D01*
X417175Y146556D01*
X417043Y146550D01*
X416912Y146541D01*
X416782Y146527D01*
X416651Y146510D01*
X416522Y146489D01*
X416393Y146465D01*
X416265Y146436D01*
X416137Y146404D01*
X416011Y146368D01*
X415886Y146329D01*
X415761Y146286D01*
X415639Y146239D01*
X415517Y146189D01*
X415397Y146135D01*
X415279Y146078D01*
X415163Y146017D01*
X415048Y145953D01*
X414935Y145886D01*
X414824Y145815D01*
X414716Y145741D01*
X414609Y145664D01*
X414505Y145584D01*
X414403Y145501D01*
X414304Y145416D01*
X414207Y145327D01*
X414113Y145235D01*
X414021Y145141D01*
X413932Y145044D01*
X413847Y144945D01*
X413764Y144843D01*
X413684Y144739D01*
X413607Y144632D01*
X413533Y144524D01*
X413462Y144413D01*
X413395Y144300D01*
X413331Y144185D01*
X413270Y144069D01*
X413213Y143951D01*
X413159Y143831D01*
X413109Y143709D01*
X413062Y143587D01*
X413019Y143462D01*
X412980Y143337D01*
X412944Y143211D01*
X412912Y143083D01*
X412883Y142955D01*
X412859Y142826D01*
X412838Y142697D01*
X412821Y142566D01*
X412807Y142436D01*
X412798Y142305D01*
X412792Y142173D01*
X412790Y142042D01*
X412790Y134818D01*
X412792Y134687D01*
X412798Y134555D01*
X412807Y134424D01*
X412821Y134294D01*
X412838Y134163D01*
X412859Y134034D01*
X412883Y133905D01*
X412912Y133777D01*
X412944Y133649D01*
X412980Y133523D01*
X413019Y133398D01*
X413062Y133273D01*
X413109Y133151D01*
X413159Y133029D01*
X413213Y132909D01*
X413270Y132791D01*
X413331Y132675D01*
X413395Y132560D01*
X413462Y132447D01*
X413533Y132336D01*
X413607Y132228D01*
X413684Y132121D01*
X413764Y132017D01*
X413847Y131915D01*
X413932Y131816D01*
X414021Y131719D01*
X414113Y131625D01*
X414207Y131533D01*
X414304Y131444D01*
X414403Y131359D01*
X414505Y131276D01*
X414609Y131196D01*
X414716Y131119D01*
X414824Y131045D01*
X414935Y130974D01*
X415048Y130907D01*
X415163Y130843D01*
X415279Y130782D01*
X415397Y130725D01*
X415517Y130671D01*
X415639Y130621D01*
X415761Y130574D01*
X415886Y130531D01*
X416011Y130492D01*
X416137Y130456D01*
X416265Y130424D01*
X416393Y130395D01*
X416522Y130371D01*
X416651Y130350D01*
X416782Y130333D01*
X416912Y130319D01*
X417043Y130310D01*
X417175Y130304D01*
X417306Y130302D01*
X421821Y130302D01*
X448112Y343803D02*
X452628Y343803D01*
X448112Y343804D02*
X447979Y343802D01*
X447847Y343796D01*
X447715Y343786D01*
X447583Y343773D01*
X447451Y343755D01*
X447321Y343734D01*
X447190Y343709D01*
X447061Y343680D01*
X446933Y343647D01*
X446805Y343611D01*
X446679Y343571D01*
X446554Y343527D01*
X446430Y343479D01*
X446308Y343428D01*
X446187Y343373D01*
X446068Y343315D01*
X445950Y343253D01*
X445835Y343188D01*
X445721Y343119D01*
X445610Y343048D01*
X445501Y342972D01*
X445394Y342894D01*
X445289Y342813D01*
X445187Y342728D01*
X445087Y342641D01*
X444990Y342551D01*
X444895Y342458D01*
X444804Y342362D01*
X444715Y342264D01*
X444629Y342163D01*
X444546Y342059D01*
X444466Y341953D01*
X444390Y341845D01*
X444316Y341735D01*
X444246Y341622D01*
X444179Y341508D01*
X444116Y341391D01*
X444056Y341273D01*
X443999Y341153D01*
X443946Y341031D01*
X443897Y340908D01*
X443851Y340784D01*
X443809Y340658D01*
X443771Y340531D01*
X443736Y340403D01*
X443705Y340274D01*
X443678Y340145D01*
X443655Y340014D01*
X443635Y339883D01*
X443620Y339751D01*
X443608Y339619D01*
X443600Y339487D01*
X443596Y339354D01*
X443596Y339222D01*
X443600Y339089D01*
X443608Y338957D01*
X443620Y338825D01*
X443635Y338693D01*
X443655Y338562D01*
X443678Y338431D01*
X443705Y338302D01*
X443736Y338173D01*
X443771Y338045D01*
X443809Y337918D01*
X443851Y337792D01*
X443897Y337668D01*
X443946Y337545D01*
X443999Y337423D01*
X444056Y337303D01*
X444116Y337185D01*
X444179Y337068D01*
X444246Y336954D01*
X444316Y336841D01*
X444390Y336731D01*
X444466Y336623D01*
X444546Y336517D01*
X444629Y336413D01*
X444715Y336312D01*
X444804Y336214D01*
X444895Y336118D01*
X444990Y336025D01*
X445087Y335935D01*
X445187Y335848D01*
X445289Y335763D01*
X445394Y335682D01*
X445501Y335604D01*
X445610Y335528D01*
X445721Y335457D01*
X445835Y335388D01*
X445950Y335323D01*
X446068Y335261D01*
X446187Y335203D01*
X446308Y335148D01*
X446430Y335097D01*
X446554Y335049D01*
X446679Y335005D01*
X446805Y334965D01*
X446933Y334929D01*
X447061Y334896D01*
X447190Y334867D01*
X447321Y334842D01*
X447451Y334821D01*
X447583Y334803D01*
X447715Y334790D01*
X447847Y334780D01*
X447979Y334774D01*
X448112Y334772D01*
X452628Y334772D01*
X452628Y351028D01*
X448112Y351028D01*
X447993Y351026D01*
X447873Y351020D01*
X447754Y351010D01*
X447636Y350996D01*
X447517Y350979D01*
X447400Y350957D01*
X447283Y350932D01*
X447168Y350902D01*
X447053Y350869D01*
X446939Y350832D01*
X446827Y350792D01*
X446716Y350747D01*
X446607Y350699D01*
X446499Y350648D01*
X446393Y350593D01*
X446289Y350534D01*
X446187Y350472D01*
X446087Y350407D01*
X445989Y350338D01*
X445893Y350266D01*
X445800Y350191D01*
X445710Y350114D01*
X445622Y350033D01*
X445537Y349949D01*
X445455Y349862D01*
X445375Y349773D01*
X445299Y349681D01*
X445225Y349587D01*
X445155Y349490D01*
X445088Y349392D01*
X445024Y349291D01*
X444964Y349187D01*
X444907Y349082D01*
X444854Y348975D01*
X444804Y348867D01*
X444758Y348757D01*
X444716Y348645D01*
X444677Y348532D01*
X444642Y348418D01*
X444611Y348303D01*
X444583Y348186D01*
X444560Y348069D01*
X444540Y347952D01*
X444524Y347833D01*
X444512Y347714D01*
X444504Y347595D01*
X444500Y347476D01*
X444500Y347356D01*
X444504Y347237D01*
X444512Y347118D01*
X444524Y346999D01*
X444540Y346880D01*
X444560Y346763D01*
X444583Y346646D01*
X444611Y346529D01*
X444642Y346414D01*
X444677Y346300D01*
X444716Y346187D01*
X444758Y346075D01*
X444804Y345965D01*
X444854Y345857D01*
X444907Y345750D01*
X444964Y345645D01*
X445024Y345541D01*
X445088Y345440D01*
X445155Y345342D01*
X445225Y345245D01*
X445299Y345151D01*
X445375Y345059D01*
X445455Y344970D01*
X445537Y344883D01*
X445622Y344799D01*
X445710Y344718D01*
X445800Y344641D01*
X445893Y344566D01*
X445989Y344494D01*
X446087Y344425D01*
X446187Y344360D01*
X446289Y344298D01*
X446393Y344239D01*
X446499Y344184D01*
X446607Y344133D01*
X446716Y344085D01*
X446827Y344040D01*
X446939Y344000D01*
X447053Y343963D01*
X447168Y343930D01*
X447283Y343900D01*
X447400Y343875D01*
X447517Y343853D01*
X447636Y343836D01*
X447754Y343822D01*
X447873Y343812D01*
X447993Y343806D01*
X448112Y343804D01*
X437729Y347416D02*
X433213Y351028D01*
X433213Y334772D01*
X428698Y334772D02*
X437729Y334772D01*
X422098Y338384D02*
X418485Y351028D01*
X422098Y338384D02*
X413066Y338384D01*
X415776Y334772D02*
X415776Y341997D01*
X448112Y318403D02*
X452628Y318403D01*
X448112Y318404D02*
X447979Y318402D01*
X447847Y318396D01*
X447715Y318386D01*
X447583Y318373D01*
X447451Y318355D01*
X447321Y318334D01*
X447190Y318309D01*
X447061Y318280D01*
X446933Y318247D01*
X446805Y318211D01*
X446679Y318171D01*
X446554Y318127D01*
X446430Y318079D01*
X446308Y318028D01*
X446187Y317973D01*
X446068Y317915D01*
X445950Y317853D01*
X445835Y317788D01*
X445721Y317719D01*
X445610Y317648D01*
X445501Y317572D01*
X445394Y317494D01*
X445289Y317413D01*
X445187Y317328D01*
X445087Y317241D01*
X444990Y317151D01*
X444895Y317058D01*
X444804Y316962D01*
X444715Y316864D01*
X444629Y316763D01*
X444546Y316659D01*
X444466Y316553D01*
X444390Y316445D01*
X444316Y316335D01*
X444246Y316222D01*
X444179Y316108D01*
X444116Y315991D01*
X444056Y315873D01*
X443999Y315753D01*
X443946Y315631D01*
X443897Y315508D01*
X443851Y315384D01*
X443809Y315258D01*
X443771Y315131D01*
X443736Y315003D01*
X443705Y314874D01*
X443678Y314745D01*
X443655Y314614D01*
X443635Y314483D01*
X443620Y314351D01*
X443608Y314219D01*
X443600Y314087D01*
X443596Y313954D01*
X443596Y313822D01*
X443600Y313689D01*
X443608Y313557D01*
X443620Y313425D01*
X443635Y313293D01*
X443655Y313162D01*
X443678Y313031D01*
X443705Y312902D01*
X443736Y312773D01*
X443771Y312645D01*
X443809Y312518D01*
X443851Y312392D01*
X443897Y312268D01*
X443946Y312145D01*
X443999Y312023D01*
X444056Y311903D01*
X444116Y311785D01*
X444179Y311668D01*
X444246Y311554D01*
X444316Y311441D01*
X444390Y311331D01*
X444466Y311223D01*
X444546Y311117D01*
X444629Y311013D01*
X444715Y310912D01*
X444804Y310814D01*
X444895Y310718D01*
X444990Y310625D01*
X445087Y310535D01*
X445187Y310448D01*
X445289Y310363D01*
X445394Y310282D01*
X445501Y310204D01*
X445610Y310128D01*
X445721Y310057D01*
X445835Y309988D01*
X445950Y309923D01*
X446068Y309861D01*
X446187Y309803D01*
X446308Y309748D01*
X446430Y309697D01*
X446554Y309649D01*
X446679Y309605D01*
X446805Y309565D01*
X446933Y309529D01*
X447061Y309496D01*
X447190Y309467D01*
X447321Y309442D01*
X447451Y309421D01*
X447583Y309403D01*
X447715Y309390D01*
X447847Y309380D01*
X447979Y309374D01*
X448112Y309372D01*
X452628Y309372D01*
X452628Y325628D01*
X448112Y325628D01*
X447993Y325626D01*
X447873Y325620D01*
X447754Y325610D01*
X447636Y325596D01*
X447517Y325579D01*
X447400Y325557D01*
X447283Y325532D01*
X447168Y325502D01*
X447053Y325469D01*
X446939Y325432D01*
X446827Y325392D01*
X446716Y325347D01*
X446607Y325299D01*
X446499Y325248D01*
X446393Y325193D01*
X446289Y325134D01*
X446187Y325072D01*
X446087Y325007D01*
X445989Y324938D01*
X445893Y324866D01*
X445800Y324791D01*
X445710Y324714D01*
X445622Y324633D01*
X445537Y324549D01*
X445455Y324462D01*
X445375Y324373D01*
X445299Y324281D01*
X445225Y324187D01*
X445155Y324090D01*
X445088Y323992D01*
X445024Y323891D01*
X444964Y323787D01*
X444907Y323682D01*
X444854Y323575D01*
X444804Y323467D01*
X444758Y323357D01*
X444716Y323245D01*
X444677Y323132D01*
X444642Y323018D01*
X444611Y322903D01*
X444583Y322786D01*
X444560Y322669D01*
X444540Y322552D01*
X444524Y322433D01*
X444512Y322314D01*
X444504Y322195D01*
X444500Y322076D01*
X444500Y321956D01*
X444504Y321837D01*
X444512Y321718D01*
X444524Y321599D01*
X444540Y321480D01*
X444560Y321363D01*
X444583Y321246D01*
X444611Y321129D01*
X444642Y321014D01*
X444677Y320900D01*
X444716Y320787D01*
X444758Y320675D01*
X444804Y320565D01*
X444854Y320457D01*
X444907Y320350D01*
X444964Y320245D01*
X445024Y320141D01*
X445088Y320040D01*
X445155Y319942D01*
X445225Y319845D01*
X445299Y319751D01*
X445375Y319659D01*
X445455Y319570D01*
X445537Y319483D01*
X445622Y319399D01*
X445710Y319318D01*
X445800Y319241D01*
X445893Y319166D01*
X445989Y319094D01*
X446087Y319025D01*
X446187Y318960D01*
X446289Y318898D01*
X446393Y318839D01*
X446499Y318784D01*
X446607Y318733D01*
X446716Y318685D01*
X446827Y318640D01*
X446939Y318600D01*
X447053Y318563D01*
X447168Y318530D01*
X447283Y318500D01*
X447400Y318475D01*
X447517Y318453D01*
X447636Y318436D01*
X447754Y318422D01*
X447873Y318412D01*
X447993Y318406D01*
X448112Y318404D01*
X437729Y322016D02*
X433213Y325628D01*
X433213Y309372D01*
X428698Y309372D02*
X437729Y309372D01*
X422098Y309372D02*
X417582Y309372D01*
X417449Y309374D01*
X417317Y309380D01*
X417185Y309390D01*
X417053Y309403D01*
X416921Y309421D01*
X416791Y309442D01*
X416660Y309467D01*
X416531Y309496D01*
X416403Y309529D01*
X416275Y309565D01*
X416149Y309605D01*
X416024Y309649D01*
X415900Y309697D01*
X415778Y309748D01*
X415657Y309803D01*
X415538Y309861D01*
X415420Y309923D01*
X415305Y309988D01*
X415191Y310057D01*
X415080Y310128D01*
X414971Y310204D01*
X414864Y310282D01*
X414759Y310363D01*
X414657Y310448D01*
X414557Y310535D01*
X414460Y310625D01*
X414365Y310718D01*
X414274Y310814D01*
X414185Y310912D01*
X414099Y311013D01*
X414016Y311117D01*
X413936Y311223D01*
X413860Y311331D01*
X413786Y311441D01*
X413716Y311554D01*
X413649Y311668D01*
X413586Y311785D01*
X413526Y311903D01*
X413469Y312023D01*
X413416Y312145D01*
X413367Y312268D01*
X413321Y312392D01*
X413279Y312518D01*
X413241Y312645D01*
X413206Y312773D01*
X413175Y312902D01*
X413148Y313031D01*
X413125Y313162D01*
X413105Y313293D01*
X413090Y313425D01*
X413078Y313557D01*
X413070Y313689D01*
X413066Y313822D01*
X413066Y313954D01*
X413070Y314087D01*
X413078Y314219D01*
X413090Y314351D01*
X413105Y314483D01*
X413125Y314614D01*
X413148Y314745D01*
X413175Y314874D01*
X413206Y315003D01*
X413241Y315131D01*
X413279Y315258D01*
X413321Y315384D01*
X413367Y315508D01*
X413416Y315631D01*
X413469Y315753D01*
X413526Y315873D01*
X413586Y315991D01*
X413649Y316108D01*
X413716Y316222D01*
X413786Y316335D01*
X413860Y316445D01*
X413936Y316553D01*
X414016Y316659D01*
X414099Y316763D01*
X414185Y316864D01*
X414274Y316962D01*
X414365Y317058D01*
X414460Y317151D01*
X414557Y317241D01*
X414657Y317328D01*
X414759Y317413D01*
X414864Y317494D01*
X414971Y317572D01*
X415080Y317648D01*
X415191Y317719D01*
X415305Y317788D01*
X415420Y317853D01*
X415538Y317915D01*
X415657Y317973D01*
X415778Y318028D01*
X415900Y318079D01*
X416024Y318127D01*
X416149Y318171D01*
X416275Y318211D01*
X416403Y318247D01*
X416531Y318280D01*
X416660Y318309D01*
X416791Y318334D01*
X416921Y318355D01*
X417053Y318373D01*
X417185Y318386D01*
X417317Y318396D01*
X417449Y318402D01*
X417582Y318404D01*
X416679Y325628D02*
X422098Y325628D01*
X416679Y325628D02*
X416560Y325626D01*
X416440Y325620D01*
X416321Y325610D01*
X416203Y325596D01*
X416084Y325579D01*
X415967Y325557D01*
X415850Y325532D01*
X415735Y325502D01*
X415620Y325469D01*
X415506Y325432D01*
X415394Y325392D01*
X415283Y325347D01*
X415174Y325299D01*
X415066Y325248D01*
X414960Y325193D01*
X414856Y325134D01*
X414754Y325072D01*
X414654Y325007D01*
X414556Y324938D01*
X414460Y324866D01*
X414367Y324791D01*
X414277Y324714D01*
X414189Y324633D01*
X414104Y324549D01*
X414022Y324462D01*
X413942Y324373D01*
X413866Y324281D01*
X413792Y324187D01*
X413722Y324090D01*
X413655Y323992D01*
X413591Y323891D01*
X413531Y323787D01*
X413474Y323682D01*
X413421Y323575D01*
X413371Y323467D01*
X413325Y323357D01*
X413283Y323245D01*
X413244Y323132D01*
X413209Y323018D01*
X413178Y322903D01*
X413150Y322786D01*
X413127Y322669D01*
X413107Y322552D01*
X413091Y322433D01*
X413079Y322314D01*
X413071Y322195D01*
X413067Y322076D01*
X413067Y321956D01*
X413071Y321837D01*
X413079Y321718D01*
X413091Y321599D01*
X413107Y321480D01*
X413127Y321363D01*
X413150Y321246D01*
X413178Y321129D01*
X413209Y321014D01*
X413244Y320900D01*
X413283Y320787D01*
X413325Y320675D01*
X413371Y320565D01*
X413421Y320457D01*
X413474Y320350D01*
X413531Y320245D01*
X413591Y320141D01*
X413655Y320040D01*
X413722Y319942D01*
X413792Y319845D01*
X413866Y319751D01*
X413942Y319659D01*
X414022Y319570D01*
X414104Y319483D01*
X414189Y319399D01*
X414277Y319318D01*
X414367Y319241D01*
X414460Y319166D01*
X414556Y319094D01*
X414654Y319025D01*
X414754Y318960D01*
X414856Y318898D01*
X414960Y318839D01*
X415066Y318784D01*
X415174Y318733D01*
X415283Y318685D01*
X415394Y318640D01*
X415506Y318600D01*
X415620Y318563D01*
X415735Y318530D01*
X415850Y318500D01*
X415967Y318475D01*
X416084Y318453D01*
X416203Y318436D01*
X416321Y318422D01*
X416440Y318412D01*
X416560Y318406D01*
X416679Y318404D01*
X416679Y318403D02*
X420291Y318403D01*
X448112Y293003D02*
X452628Y293003D01*
X448112Y293004D02*
X447979Y293002D01*
X447847Y292996D01*
X447715Y292986D01*
X447583Y292973D01*
X447451Y292955D01*
X447321Y292934D01*
X447190Y292909D01*
X447061Y292880D01*
X446933Y292847D01*
X446805Y292811D01*
X446679Y292771D01*
X446554Y292727D01*
X446430Y292679D01*
X446308Y292628D01*
X446187Y292573D01*
X446068Y292515D01*
X445950Y292453D01*
X445835Y292388D01*
X445721Y292319D01*
X445610Y292248D01*
X445501Y292172D01*
X445394Y292094D01*
X445289Y292013D01*
X445187Y291928D01*
X445087Y291841D01*
X444990Y291751D01*
X444895Y291658D01*
X444804Y291562D01*
X444715Y291464D01*
X444629Y291363D01*
X444546Y291259D01*
X444466Y291153D01*
X444390Y291045D01*
X444316Y290935D01*
X444246Y290822D01*
X444179Y290708D01*
X444116Y290591D01*
X444056Y290473D01*
X443999Y290353D01*
X443946Y290231D01*
X443897Y290108D01*
X443851Y289984D01*
X443809Y289858D01*
X443771Y289731D01*
X443736Y289603D01*
X443705Y289474D01*
X443678Y289345D01*
X443655Y289214D01*
X443635Y289083D01*
X443620Y288951D01*
X443608Y288819D01*
X443600Y288687D01*
X443596Y288554D01*
X443596Y288422D01*
X443600Y288289D01*
X443608Y288157D01*
X443620Y288025D01*
X443635Y287893D01*
X443655Y287762D01*
X443678Y287631D01*
X443705Y287502D01*
X443736Y287373D01*
X443771Y287245D01*
X443809Y287118D01*
X443851Y286992D01*
X443897Y286868D01*
X443946Y286745D01*
X443999Y286623D01*
X444056Y286503D01*
X444116Y286385D01*
X444179Y286268D01*
X444246Y286154D01*
X444316Y286041D01*
X444390Y285931D01*
X444466Y285823D01*
X444546Y285717D01*
X444629Y285613D01*
X444715Y285512D01*
X444804Y285414D01*
X444895Y285318D01*
X444990Y285225D01*
X445087Y285135D01*
X445187Y285048D01*
X445289Y284963D01*
X445394Y284882D01*
X445501Y284804D01*
X445610Y284728D01*
X445721Y284657D01*
X445835Y284588D01*
X445950Y284523D01*
X446068Y284461D01*
X446187Y284403D01*
X446308Y284348D01*
X446430Y284297D01*
X446554Y284249D01*
X446679Y284205D01*
X446805Y284165D01*
X446933Y284129D01*
X447061Y284096D01*
X447190Y284067D01*
X447321Y284042D01*
X447451Y284021D01*
X447583Y284003D01*
X447715Y283990D01*
X447847Y283980D01*
X447979Y283974D01*
X448112Y283972D01*
X452628Y283972D01*
X452628Y300228D01*
X448112Y300228D01*
X447993Y300226D01*
X447873Y300220D01*
X447754Y300210D01*
X447636Y300196D01*
X447517Y300179D01*
X447400Y300157D01*
X447283Y300132D01*
X447168Y300102D01*
X447053Y300069D01*
X446939Y300032D01*
X446827Y299992D01*
X446716Y299947D01*
X446607Y299899D01*
X446499Y299848D01*
X446393Y299793D01*
X446289Y299734D01*
X446187Y299672D01*
X446087Y299607D01*
X445989Y299538D01*
X445893Y299466D01*
X445800Y299391D01*
X445710Y299314D01*
X445622Y299233D01*
X445537Y299149D01*
X445455Y299062D01*
X445375Y298973D01*
X445299Y298881D01*
X445225Y298787D01*
X445155Y298690D01*
X445088Y298592D01*
X445024Y298491D01*
X444964Y298387D01*
X444907Y298282D01*
X444854Y298175D01*
X444804Y298067D01*
X444758Y297957D01*
X444716Y297845D01*
X444677Y297732D01*
X444642Y297618D01*
X444611Y297503D01*
X444583Y297386D01*
X444560Y297269D01*
X444540Y297152D01*
X444524Y297033D01*
X444512Y296914D01*
X444504Y296795D01*
X444500Y296676D01*
X444500Y296556D01*
X444504Y296437D01*
X444512Y296318D01*
X444524Y296199D01*
X444540Y296080D01*
X444560Y295963D01*
X444583Y295846D01*
X444611Y295729D01*
X444642Y295614D01*
X444677Y295500D01*
X444716Y295387D01*
X444758Y295275D01*
X444804Y295165D01*
X444854Y295057D01*
X444907Y294950D01*
X444964Y294845D01*
X445024Y294741D01*
X445088Y294640D01*
X445155Y294542D01*
X445225Y294445D01*
X445299Y294351D01*
X445375Y294259D01*
X445455Y294170D01*
X445537Y294083D01*
X445622Y293999D01*
X445710Y293918D01*
X445800Y293841D01*
X445893Y293766D01*
X445989Y293694D01*
X446087Y293625D01*
X446187Y293560D01*
X446289Y293498D01*
X446393Y293439D01*
X446499Y293384D01*
X446607Y293333D01*
X446716Y293285D01*
X446827Y293240D01*
X446939Y293200D01*
X447053Y293163D01*
X447168Y293130D01*
X447283Y293100D01*
X447400Y293075D01*
X447517Y293053D01*
X447636Y293036D01*
X447754Y293022D01*
X447873Y293012D01*
X447993Y293006D01*
X448112Y293004D01*
X437729Y296616D02*
X433213Y300228D01*
X433213Y283972D01*
X428698Y283972D02*
X437729Y283972D01*
X417130Y300228D02*
X417005Y300226D01*
X416880Y300220D01*
X416755Y300211D01*
X416631Y300197D01*
X416507Y300180D01*
X416383Y300159D01*
X416261Y300134D01*
X416139Y300105D01*
X416018Y300073D01*
X415898Y300037D01*
X415779Y299997D01*
X415662Y299954D01*
X415546Y299907D01*
X415431Y299856D01*
X415319Y299802D01*
X415207Y299744D01*
X415098Y299684D01*
X414991Y299619D01*
X414885Y299552D01*
X414782Y299481D01*
X414681Y299407D01*
X414582Y299330D01*
X414486Y299250D01*
X414392Y299167D01*
X414301Y299082D01*
X414212Y298993D01*
X414127Y298902D01*
X414044Y298808D01*
X413964Y298712D01*
X413887Y298613D01*
X413813Y298512D01*
X413742Y298409D01*
X413675Y298303D01*
X413610Y298196D01*
X413550Y298087D01*
X413492Y297975D01*
X413438Y297863D01*
X413387Y297748D01*
X413340Y297632D01*
X413297Y297515D01*
X413257Y297396D01*
X413221Y297276D01*
X413189Y297155D01*
X413160Y297033D01*
X413135Y296911D01*
X413114Y296787D01*
X413097Y296663D01*
X413083Y296539D01*
X413074Y296414D01*
X413068Y296289D01*
X413066Y296164D01*
X417130Y300228D02*
X417273Y300226D01*
X417415Y300220D01*
X417558Y300210D01*
X417700Y300197D01*
X417841Y300179D01*
X417983Y300158D01*
X418123Y300133D01*
X418263Y300104D01*
X418402Y300071D01*
X418540Y300034D01*
X418677Y299994D01*
X418812Y299950D01*
X418947Y299902D01*
X419080Y299850D01*
X419212Y299795D01*
X419342Y299736D01*
X419470Y299674D01*
X419597Y299608D01*
X419722Y299539D01*
X419845Y299467D01*
X419966Y299391D01*
X420084Y299312D01*
X420201Y299229D01*
X420315Y299144D01*
X420427Y299055D01*
X420536Y298964D01*
X420643Y298869D01*
X420748Y298772D01*
X420849Y298671D01*
X420948Y298568D01*
X421044Y298463D01*
X421137Y298354D01*
X421227Y298243D01*
X421314Y298130D01*
X421398Y298015D01*
X421478Y297897D01*
X421556Y297777D01*
X421630Y297655D01*
X421700Y297531D01*
X421768Y297405D01*
X421831Y297277D01*
X421892Y297148D01*
X421949Y297017D01*
X422002Y296885D01*
X422051Y296751D01*
X422097Y296616D01*
X414422Y293003D02*
X414328Y293095D01*
X414238Y293189D01*
X414150Y293286D01*
X414065Y293386D01*
X413983Y293488D01*
X413904Y293593D01*
X413829Y293700D01*
X413757Y293809D01*
X413688Y293920D01*
X413622Y294034D01*
X413560Y294149D01*
X413501Y294266D01*
X413446Y294385D01*
X413395Y294505D01*
X413347Y294627D01*
X413302Y294750D01*
X413262Y294874D01*
X413225Y295000D01*
X413192Y295127D01*
X413163Y295254D01*
X413137Y295383D01*
X413116Y295512D01*
X413098Y295642D01*
X413085Y295772D01*
X413075Y295902D01*
X413069Y296033D01*
X413067Y296164D01*
X414421Y293003D02*
X422098Y283972D01*
X413066Y283972D01*
X448112Y267603D02*
X452628Y267603D01*
X448112Y267604D02*
X447979Y267602D01*
X447847Y267596D01*
X447715Y267586D01*
X447583Y267573D01*
X447451Y267555D01*
X447321Y267534D01*
X447190Y267509D01*
X447061Y267480D01*
X446933Y267447D01*
X446805Y267411D01*
X446679Y267371D01*
X446554Y267327D01*
X446430Y267279D01*
X446308Y267228D01*
X446187Y267173D01*
X446068Y267115D01*
X445950Y267053D01*
X445835Y266988D01*
X445721Y266919D01*
X445610Y266848D01*
X445501Y266772D01*
X445394Y266694D01*
X445289Y266613D01*
X445187Y266528D01*
X445087Y266441D01*
X444990Y266351D01*
X444895Y266258D01*
X444804Y266162D01*
X444715Y266064D01*
X444629Y265963D01*
X444546Y265859D01*
X444466Y265753D01*
X444390Y265645D01*
X444316Y265535D01*
X444246Y265422D01*
X444179Y265308D01*
X444116Y265191D01*
X444056Y265073D01*
X443999Y264953D01*
X443946Y264831D01*
X443897Y264708D01*
X443851Y264584D01*
X443809Y264458D01*
X443771Y264331D01*
X443736Y264203D01*
X443705Y264074D01*
X443678Y263945D01*
X443655Y263814D01*
X443635Y263683D01*
X443620Y263551D01*
X443608Y263419D01*
X443600Y263287D01*
X443596Y263154D01*
X443596Y263022D01*
X443600Y262889D01*
X443608Y262757D01*
X443620Y262625D01*
X443635Y262493D01*
X443655Y262362D01*
X443678Y262231D01*
X443705Y262102D01*
X443736Y261973D01*
X443771Y261845D01*
X443809Y261718D01*
X443851Y261592D01*
X443897Y261468D01*
X443946Y261345D01*
X443999Y261223D01*
X444056Y261103D01*
X444116Y260985D01*
X444179Y260868D01*
X444246Y260754D01*
X444316Y260641D01*
X444390Y260531D01*
X444466Y260423D01*
X444546Y260317D01*
X444629Y260213D01*
X444715Y260112D01*
X444804Y260014D01*
X444895Y259918D01*
X444990Y259825D01*
X445087Y259735D01*
X445187Y259648D01*
X445289Y259563D01*
X445394Y259482D01*
X445501Y259404D01*
X445610Y259328D01*
X445721Y259257D01*
X445835Y259188D01*
X445950Y259123D01*
X446068Y259061D01*
X446187Y259003D01*
X446308Y258948D01*
X446430Y258897D01*
X446554Y258849D01*
X446679Y258805D01*
X446805Y258765D01*
X446933Y258729D01*
X447061Y258696D01*
X447190Y258667D01*
X447321Y258642D01*
X447451Y258621D01*
X447583Y258603D01*
X447715Y258590D01*
X447847Y258580D01*
X447979Y258574D01*
X448112Y258572D01*
X452628Y258572D01*
X452628Y274828D01*
X448112Y274828D01*
X447993Y274826D01*
X447873Y274820D01*
X447754Y274810D01*
X447636Y274796D01*
X447517Y274779D01*
X447400Y274757D01*
X447283Y274732D01*
X447168Y274702D01*
X447053Y274669D01*
X446939Y274632D01*
X446827Y274592D01*
X446716Y274547D01*
X446607Y274499D01*
X446499Y274448D01*
X446393Y274393D01*
X446289Y274334D01*
X446187Y274272D01*
X446087Y274207D01*
X445989Y274138D01*
X445893Y274066D01*
X445800Y273991D01*
X445710Y273914D01*
X445622Y273833D01*
X445537Y273749D01*
X445455Y273662D01*
X445375Y273573D01*
X445299Y273481D01*
X445225Y273387D01*
X445155Y273290D01*
X445088Y273192D01*
X445024Y273091D01*
X444964Y272987D01*
X444907Y272882D01*
X444854Y272775D01*
X444804Y272667D01*
X444758Y272557D01*
X444716Y272445D01*
X444677Y272332D01*
X444642Y272218D01*
X444611Y272103D01*
X444583Y271986D01*
X444560Y271869D01*
X444540Y271752D01*
X444524Y271633D01*
X444512Y271514D01*
X444504Y271395D01*
X444500Y271276D01*
X444500Y271156D01*
X444504Y271037D01*
X444512Y270918D01*
X444524Y270799D01*
X444540Y270680D01*
X444560Y270563D01*
X444583Y270446D01*
X444611Y270329D01*
X444642Y270214D01*
X444677Y270100D01*
X444716Y269987D01*
X444758Y269875D01*
X444804Y269765D01*
X444854Y269657D01*
X444907Y269550D01*
X444964Y269445D01*
X445024Y269341D01*
X445088Y269240D01*
X445155Y269142D01*
X445225Y269045D01*
X445299Y268951D01*
X445375Y268859D01*
X445455Y268770D01*
X445537Y268683D01*
X445622Y268599D01*
X445710Y268518D01*
X445800Y268441D01*
X445893Y268366D01*
X445989Y268294D01*
X446087Y268225D01*
X446187Y268160D01*
X446289Y268098D01*
X446393Y268039D01*
X446499Y267984D01*
X446607Y267933D01*
X446716Y267885D01*
X446827Y267840D01*
X446939Y267800D01*
X447053Y267763D01*
X447168Y267730D01*
X447283Y267700D01*
X447400Y267675D01*
X447517Y267653D01*
X447636Y267636D01*
X447754Y267622D01*
X447873Y267612D01*
X447993Y267606D01*
X448112Y267604D01*
X437729Y271216D02*
X433213Y274828D01*
X433213Y258572D01*
X428698Y258572D02*
X437729Y258572D01*
X422098Y271216D02*
X417582Y274828D01*
X417582Y258572D01*
X422098Y258572D02*
X413066Y258572D01*
X448112Y242203D02*
X452628Y242203D01*
X448112Y242204D02*
X447979Y242202D01*
X447847Y242196D01*
X447715Y242186D01*
X447583Y242173D01*
X447451Y242155D01*
X447321Y242134D01*
X447190Y242109D01*
X447061Y242080D01*
X446933Y242047D01*
X446805Y242011D01*
X446679Y241971D01*
X446554Y241927D01*
X446430Y241879D01*
X446308Y241828D01*
X446187Y241773D01*
X446068Y241715D01*
X445950Y241653D01*
X445835Y241588D01*
X445721Y241519D01*
X445610Y241448D01*
X445501Y241372D01*
X445394Y241294D01*
X445289Y241213D01*
X445187Y241128D01*
X445087Y241041D01*
X444990Y240951D01*
X444895Y240858D01*
X444804Y240762D01*
X444715Y240664D01*
X444629Y240563D01*
X444546Y240459D01*
X444466Y240353D01*
X444390Y240245D01*
X444316Y240135D01*
X444246Y240022D01*
X444179Y239908D01*
X444116Y239791D01*
X444056Y239673D01*
X443999Y239553D01*
X443946Y239431D01*
X443897Y239308D01*
X443851Y239184D01*
X443809Y239058D01*
X443771Y238931D01*
X443736Y238803D01*
X443705Y238674D01*
X443678Y238545D01*
X443655Y238414D01*
X443635Y238283D01*
X443620Y238151D01*
X443608Y238019D01*
X443600Y237887D01*
X443596Y237754D01*
X443596Y237622D01*
X443600Y237489D01*
X443608Y237357D01*
X443620Y237225D01*
X443635Y237093D01*
X443655Y236962D01*
X443678Y236831D01*
X443705Y236702D01*
X443736Y236573D01*
X443771Y236445D01*
X443809Y236318D01*
X443851Y236192D01*
X443897Y236068D01*
X443946Y235945D01*
X443999Y235823D01*
X444056Y235703D01*
X444116Y235585D01*
X444179Y235468D01*
X444246Y235354D01*
X444316Y235241D01*
X444390Y235131D01*
X444466Y235023D01*
X444546Y234917D01*
X444629Y234813D01*
X444715Y234712D01*
X444804Y234614D01*
X444895Y234518D01*
X444990Y234425D01*
X445087Y234335D01*
X445187Y234248D01*
X445289Y234163D01*
X445394Y234082D01*
X445501Y234004D01*
X445610Y233928D01*
X445721Y233857D01*
X445835Y233788D01*
X445950Y233723D01*
X446068Y233661D01*
X446187Y233603D01*
X446308Y233548D01*
X446430Y233497D01*
X446554Y233449D01*
X446679Y233405D01*
X446805Y233365D01*
X446933Y233329D01*
X447061Y233296D01*
X447190Y233267D01*
X447321Y233242D01*
X447451Y233221D01*
X447583Y233203D01*
X447715Y233190D01*
X447847Y233180D01*
X447979Y233174D01*
X448112Y233172D01*
X452628Y233172D01*
X452628Y249428D01*
X448112Y249428D01*
X447993Y249426D01*
X447873Y249420D01*
X447754Y249410D01*
X447636Y249396D01*
X447517Y249379D01*
X447400Y249357D01*
X447283Y249332D01*
X447168Y249302D01*
X447053Y249269D01*
X446939Y249232D01*
X446827Y249192D01*
X446716Y249147D01*
X446607Y249099D01*
X446499Y249048D01*
X446393Y248993D01*
X446289Y248934D01*
X446187Y248872D01*
X446087Y248807D01*
X445989Y248738D01*
X445893Y248666D01*
X445800Y248591D01*
X445710Y248514D01*
X445622Y248433D01*
X445537Y248349D01*
X445455Y248262D01*
X445375Y248173D01*
X445299Y248081D01*
X445225Y247987D01*
X445155Y247890D01*
X445088Y247792D01*
X445024Y247691D01*
X444964Y247587D01*
X444907Y247482D01*
X444854Y247375D01*
X444804Y247267D01*
X444758Y247157D01*
X444716Y247045D01*
X444677Y246932D01*
X444642Y246818D01*
X444611Y246703D01*
X444583Y246586D01*
X444560Y246469D01*
X444540Y246352D01*
X444524Y246233D01*
X444512Y246114D01*
X444504Y245995D01*
X444500Y245876D01*
X444500Y245756D01*
X444504Y245637D01*
X444512Y245518D01*
X444524Y245399D01*
X444540Y245280D01*
X444560Y245163D01*
X444583Y245046D01*
X444611Y244929D01*
X444642Y244814D01*
X444677Y244700D01*
X444716Y244587D01*
X444758Y244475D01*
X444804Y244365D01*
X444854Y244257D01*
X444907Y244150D01*
X444964Y244045D01*
X445024Y243941D01*
X445088Y243840D01*
X445155Y243742D01*
X445225Y243645D01*
X445299Y243551D01*
X445375Y243459D01*
X445455Y243370D01*
X445537Y243283D01*
X445622Y243199D01*
X445710Y243118D01*
X445800Y243041D01*
X445893Y242966D01*
X445989Y242894D01*
X446087Y242825D01*
X446187Y242760D01*
X446289Y242698D01*
X446393Y242639D01*
X446499Y242584D01*
X446607Y242533D01*
X446716Y242485D01*
X446827Y242440D01*
X446939Y242400D01*
X447053Y242363D01*
X447168Y242330D01*
X447283Y242300D01*
X447400Y242275D01*
X447517Y242253D01*
X447636Y242236D01*
X447754Y242222D01*
X447873Y242212D01*
X447993Y242206D01*
X448112Y242204D01*
X437729Y245816D02*
X433213Y249428D01*
X433213Y233172D01*
X428698Y233172D02*
X437729Y233172D01*
X422097Y241300D02*
X422093Y241620D01*
X422082Y241939D01*
X422063Y242259D01*
X422036Y242577D01*
X422002Y242895D01*
X421960Y243212D01*
X421910Y243528D01*
X421853Y243843D01*
X421789Y244156D01*
X421717Y244468D01*
X421638Y244778D01*
X421551Y245085D01*
X421457Y245391D01*
X421356Y245694D01*
X421247Y245995D01*
X421132Y246293D01*
X421009Y246589D01*
X420879Y246881D01*
X420742Y247170D01*
X420743Y247171D02*
X420704Y247279D01*
X420661Y247386D01*
X420615Y247491D01*
X420564Y247595D01*
X420511Y247697D01*
X420454Y247797D01*
X420393Y247895D01*
X420329Y247990D01*
X420262Y248084D01*
X420191Y248175D01*
X420118Y248264D01*
X420041Y248350D01*
X419962Y248433D01*
X419880Y248514D01*
X419795Y248592D01*
X419707Y248666D01*
X419617Y248738D01*
X419525Y248806D01*
X419430Y248872D01*
X419333Y248934D01*
X419234Y248992D01*
X419132Y249048D01*
X419030Y249099D01*
X418925Y249147D01*
X418819Y249192D01*
X418711Y249233D01*
X418602Y249270D01*
X418492Y249303D01*
X418380Y249332D01*
X418268Y249358D01*
X418155Y249380D01*
X418041Y249397D01*
X417927Y249411D01*
X417812Y249421D01*
X417697Y249427D01*
X417582Y249429D01*
X417582Y249428D02*
X417467Y249426D01*
X417352Y249420D01*
X417237Y249410D01*
X417123Y249396D01*
X417009Y249379D01*
X416896Y249357D01*
X416784Y249331D01*
X416672Y249302D01*
X416562Y249269D01*
X416453Y249232D01*
X416345Y249191D01*
X416239Y249146D01*
X416135Y249098D01*
X416032Y249047D01*
X415931Y248991D01*
X415831Y248933D01*
X415734Y248871D01*
X415640Y248806D01*
X415547Y248737D01*
X415457Y248665D01*
X415369Y248591D01*
X415284Y248513D01*
X415202Y248432D01*
X415123Y248349D01*
X415046Y248263D01*
X414973Y248174D01*
X414902Y248083D01*
X414835Y247989D01*
X414771Y247894D01*
X414710Y247796D01*
X414653Y247696D01*
X414600Y247594D01*
X414549Y247490D01*
X414503Y247385D01*
X414460Y247278D01*
X414421Y247170D01*
X414422Y247170D02*
X414285Y246881D01*
X414155Y246589D01*
X414032Y246293D01*
X413917Y245995D01*
X413808Y245694D01*
X413707Y245391D01*
X413613Y245085D01*
X413526Y244778D01*
X413447Y244468D01*
X413375Y244156D01*
X413311Y243843D01*
X413254Y243528D01*
X413204Y243212D01*
X413162Y242895D01*
X413128Y242577D01*
X413101Y242259D01*
X413082Y241939D01*
X413071Y241620D01*
X413067Y241300D01*
X422097Y241300D02*
X422093Y240980D01*
X422082Y240661D01*
X422063Y240341D01*
X422036Y240023D01*
X422002Y239705D01*
X421960Y239388D01*
X421910Y239072D01*
X421853Y238757D01*
X421789Y238444D01*
X421717Y238132D01*
X421638Y237822D01*
X421551Y237515D01*
X421457Y237209D01*
X421356Y236906D01*
X421247Y236605D01*
X421132Y236307D01*
X421009Y236011D01*
X420879Y235719D01*
X420742Y235430D01*
X420743Y235430D02*
X420704Y235322D01*
X420661Y235215D01*
X420615Y235110D01*
X420564Y235006D01*
X420511Y234904D01*
X420454Y234804D01*
X420393Y234706D01*
X420329Y234611D01*
X420262Y234517D01*
X420191Y234426D01*
X420118Y234337D01*
X420041Y234251D01*
X419962Y234168D01*
X419880Y234087D01*
X419795Y234009D01*
X419707Y233935D01*
X419617Y233863D01*
X419524Y233794D01*
X419430Y233729D01*
X419333Y233667D01*
X419233Y233609D01*
X419132Y233553D01*
X419030Y233502D01*
X418925Y233454D01*
X418819Y233409D01*
X418711Y233368D01*
X418602Y233331D01*
X418492Y233298D01*
X418380Y233269D01*
X418268Y233243D01*
X418155Y233221D01*
X418041Y233204D01*
X417927Y233190D01*
X417812Y233180D01*
X417697Y233174D01*
X417582Y233172D01*
X414422Y235430D02*
X414285Y235719D01*
X414155Y236011D01*
X414032Y236307D01*
X413917Y236605D01*
X413808Y236906D01*
X413707Y237209D01*
X413613Y237515D01*
X413526Y237822D01*
X413447Y238132D01*
X413375Y238444D01*
X413311Y238757D01*
X413254Y239072D01*
X413204Y239388D01*
X413162Y239705D01*
X413128Y240023D01*
X413101Y240341D01*
X413082Y240661D01*
X413071Y240980D01*
X413067Y241300D01*
X414421Y235430D02*
X414460Y235322D01*
X414503Y235215D01*
X414549Y235110D01*
X414600Y235006D01*
X414653Y234904D01*
X414711Y234804D01*
X414771Y234706D01*
X414835Y234611D01*
X414902Y234517D01*
X414973Y234426D01*
X415046Y234337D01*
X415123Y234251D01*
X415202Y234168D01*
X415284Y234087D01*
X415369Y234009D01*
X415457Y233935D01*
X415547Y233863D01*
X415640Y233794D01*
X415734Y233729D01*
X415831Y233667D01*
X415931Y233609D01*
X416032Y233553D01*
X416135Y233502D01*
X416239Y233454D01*
X416345Y233409D01*
X416453Y233368D01*
X416562Y233331D01*
X416672Y233298D01*
X416784Y233269D01*
X416896Y233243D01*
X417009Y233221D01*
X417123Y233204D01*
X417237Y233190D01*
X417352Y233180D01*
X417467Y233174D01*
X417582Y233172D01*
X421194Y236784D02*
X413970Y245816D01*
X71628Y360172D02*
X66209Y376428D01*
X60791Y360172D01*
X62145Y364236D02*
X70273Y364236D01*
X55093Y368300D02*
X55089Y368620D01*
X55078Y368939D01*
X55059Y369259D01*
X55032Y369577D01*
X54998Y369895D01*
X54956Y370212D01*
X54906Y370528D01*
X54849Y370843D01*
X54785Y371156D01*
X54713Y371468D01*
X54634Y371778D01*
X54547Y372085D01*
X54453Y372391D01*
X54352Y372694D01*
X54243Y372995D01*
X54128Y373293D01*
X54005Y373589D01*
X53875Y373881D01*
X53738Y374170D01*
X53739Y374171D02*
X53700Y374279D01*
X53657Y374386D01*
X53611Y374491D01*
X53560Y374595D01*
X53507Y374697D01*
X53450Y374797D01*
X53389Y374895D01*
X53325Y374990D01*
X53258Y375084D01*
X53187Y375175D01*
X53114Y375264D01*
X53037Y375350D01*
X52958Y375433D01*
X52876Y375514D01*
X52791Y375592D01*
X52703Y375666D01*
X52613Y375738D01*
X52521Y375806D01*
X52426Y375872D01*
X52329Y375934D01*
X52230Y375992D01*
X52128Y376048D01*
X52026Y376099D01*
X51921Y376147D01*
X51815Y376192D01*
X51707Y376233D01*
X51598Y376270D01*
X51488Y376303D01*
X51376Y376332D01*
X51264Y376358D01*
X51151Y376380D01*
X51037Y376397D01*
X50923Y376411D01*
X50808Y376421D01*
X50693Y376427D01*
X50578Y376429D01*
X50578Y376428D02*
X50463Y376426D01*
X50348Y376420D01*
X50233Y376410D01*
X50119Y376396D01*
X50005Y376379D01*
X49892Y376357D01*
X49780Y376331D01*
X49668Y376302D01*
X49558Y376269D01*
X49449Y376232D01*
X49341Y376191D01*
X49235Y376146D01*
X49131Y376098D01*
X49028Y376047D01*
X48927Y375991D01*
X48827Y375933D01*
X48730Y375871D01*
X48636Y375806D01*
X48543Y375737D01*
X48453Y375665D01*
X48365Y375591D01*
X48280Y375513D01*
X48198Y375432D01*
X48119Y375349D01*
X48042Y375263D01*
X47969Y375174D01*
X47898Y375083D01*
X47831Y374989D01*
X47767Y374894D01*
X47706Y374796D01*
X47649Y374696D01*
X47596Y374594D01*
X47545Y374490D01*
X47499Y374385D01*
X47456Y374278D01*
X47417Y374170D01*
X47418Y374170D02*
X47281Y373881D01*
X47151Y373589D01*
X47028Y373293D01*
X46913Y372995D01*
X46804Y372694D01*
X46703Y372391D01*
X46609Y372085D01*
X46522Y371778D01*
X46443Y371468D01*
X46371Y371156D01*
X46307Y370843D01*
X46250Y370528D01*
X46200Y370212D01*
X46158Y369895D01*
X46124Y369577D01*
X46097Y369259D01*
X46078Y368939D01*
X46067Y368620D01*
X46063Y368300D01*
X55093Y368300D02*
X55089Y367980D01*
X55078Y367661D01*
X55059Y367341D01*
X55032Y367023D01*
X54998Y366705D01*
X54956Y366388D01*
X54906Y366072D01*
X54849Y365757D01*
X54785Y365444D01*
X54713Y365132D01*
X54634Y364822D01*
X54547Y364515D01*
X54453Y364209D01*
X54352Y363906D01*
X54243Y363605D01*
X54128Y363307D01*
X54005Y363011D01*
X53875Y362719D01*
X53738Y362430D01*
X53739Y362430D02*
X53700Y362322D01*
X53657Y362215D01*
X53611Y362110D01*
X53560Y362006D01*
X53507Y361904D01*
X53450Y361804D01*
X53389Y361706D01*
X53325Y361611D01*
X53258Y361517D01*
X53187Y361426D01*
X53114Y361337D01*
X53037Y361251D01*
X52958Y361168D01*
X52876Y361087D01*
X52791Y361009D01*
X52703Y360935D01*
X52613Y360863D01*
X52520Y360794D01*
X52426Y360729D01*
X52329Y360667D01*
X52229Y360609D01*
X52128Y360553D01*
X52026Y360502D01*
X51921Y360454D01*
X51815Y360409D01*
X51707Y360368D01*
X51598Y360331D01*
X51488Y360298D01*
X51376Y360269D01*
X51264Y360243D01*
X51151Y360221D01*
X51037Y360204D01*
X50923Y360190D01*
X50808Y360180D01*
X50693Y360174D01*
X50578Y360172D01*
X47418Y362430D02*
X47281Y362719D01*
X47151Y363011D01*
X47028Y363307D01*
X46913Y363605D01*
X46804Y363906D01*
X46703Y364209D01*
X46609Y364515D01*
X46522Y364822D01*
X46443Y365132D01*
X46371Y365444D01*
X46307Y365757D01*
X46250Y366072D01*
X46200Y366388D01*
X46158Y366705D01*
X46124Y367023D01*
X46097Y367341D01*
X46078Y367661D01*
X46067Y367980D01*
X46063Y368300D01*
X47417Y362430D02*
X47456Y362322D01*
X47499Y362215D01*
X47545Y362110D01*
X47596Y362006D01*
X47649Y361904D01*
X47707Y361804D01*
X47767Y361706D01*
X47831Y361611D01*
X47898Y361517D01*
X47969Y361426D01*
X48042Y361337D01*
X48119Y361251D01*
X48198Y361168D01*
X48280Y361087D01*
X48365Y361009D01*
X48453Y360935D01*
X48543Y360863D01*
X48636Y360794D01*
X48730Y360729D01*
X48827Y360667D01*
X48927Y360609D01*
X49028Y360553D01*
X49131Y360502D01*
X49235Y360454D01*
X49341Y360409D01*
X49449Y360368D01*
X49558Y360331D01*
X49668Y360298D01*
X49780Y360269D01*
X49892Y360243D01*
X50005Y360221D01*
X50119Y360204D01*
X50233Y360190D01*
X50348Y360180D01*
X50463Y360174D01*
X50578Y360172D01*
X54191Y363784D02*
X46966Y372816D01*
X66209Y351028D02*
X71628Y334772D01*
X60791Y334772D02*
X66209Y351028D01*
X62145Y338836D02*
X70273Y338836D01*
X55094Y347416D02*
X50578Y351028D01*
X50578Y334772D01*
X46063Y334772D02*
X55094Y334772D01*
X67112Y318403D02*
X71628Y318403D01*
X67112Y318404D02*
X66979Y318402D01*
X66847Y318396D01*
X66715Y318386D01*
X66583Y318373D01*
X66451Y318355D01*
X66321Y318334D01*
X66190Y318309D01*
X66061Y318280D01*
X65933Y318247D01*
X65805Y318211D01*
X65679Y318171D01*
X65554Y318127D01*
X65430Y318079D01*
X65308Y318028D01*
X65187Y317973D01*
X65068Y317915D01*
X64950Y317853D01*
X64835Y317788D01*
X64721Y317719D01*
X64610Y317648D01*
X64501Y317572D01*
X64394Y317494D01*
X64289Y317413D01*
X64187Y317328D01*
X64087Y317241D01*
X63990Y317151D01*
X63895Y317058D01*
X63804Y316962D01*
X63715Y316864D01*
X63629Y316763D01*
X63546Y316659D01*
X63466Y316553D01*
X63390Y316445D01*
X63316Y316335D01*
X63246Y316222D01*
X63179Y316108D01*
X63116Y315991D01*
X63056Y315873D01*
X62999Y315753D01*
X62946Y315631D01*
X62897Y315508D01*
X62851Y315384D01*
X62809Y315258D01*
X62771Y315131D01*
X62736Y315003D01*
X62705Y314874D01*
X62678Y314745D01*
X62655Y314614D01*
X62635Y314483D01*
X62620Y314351D01*
X62608Y314219D01*
X62600Y314087D01*
X62596Y313954D01*
X62596Y313822D01*
X62600Y313689D01*
X62608Y313557D01*
X62620Y313425D01*
X62635Y313293D01*
X62655Y313162D01*
X62678Y313031D01*
X62705Y312902D01*
X62736Y312773D01*
X62771Y312645D01*
X62809Y312518D01*
X62851Y312392D01*
X62897Y312268D01*
X62946Y312145D01*
X62999Y312023D01*
X63056Y311903D01*
X63116Y311785D01*
X63179Y311668D01*
X63246Y311554D01*
X63316Y311441D01*
X63390Y311331D01*
X63466Y311223D01*
X63546Y311117D01*
X63629Y311013D01*
X63715Y310912D01*
X63804Y310814D01*
X63895Y310718D01*
X63990Y310625D01*
X64087Y310535D01*
X64187Y310448D01*
X64289Y310363D01*
X64394Y310282D01*
X64501Y310204D01*
X64610Y310128D01*
X64721Y310057D01*
X64835Y309988D01*
X64950Y309923D01*
X65068Y309861D01*
X65187Y309803D01*
X65308Y309748D01*
X65430Y309697D01*
X65554Y309649D01*
X65679Y309605D01*
X65805Y309565D01*
X65933Y309529D01*
X66061Y309496D01*
X66190Y309467D01*
X66321Y309442D01*
X66451Y309421D01*
X66583Y309403D01*
X66715Y309390D01*
X66847Y309380D01*
X66979Y309374D01*
X67112Y309372D01*
X71628Y309372D01*
X71628Y325628D01*
X67112Y325628D01*
X66993Y325626D01*
X66873Y325620D01*
X66754Y325610D01*
X66636Y325596D01*
X66517Y325579D01*
X66400Y325557D01*
X66283Y325532D01*
X66168Y325502D01*
X66053Y325469D01*
X65939Y325432D01*
X65827Y325392D01*
X65716Y325347D01*
X65607Y325299D01*
X65499Y325248D01*
X65393Y325193D01*
X65289Y325134D01*
X65187Y325072D01*
X65087Y325007D01*
X64989Y324938D01*
X64893Y324866D01*
X64800Y324791D01*
X64710Y324714D01*
X64622Y324633D01*
X64537Y324549D01*
X64455Y324462D01*
X64375Y324373D01*
X64299Y324281D01*
X64225Y324187D01*
X64155Y324090D01*
X64088Y323992D01*
X64024Y323891D01*
X63964Y323787D01*
X63907Y323682D01*
X63854Y323575D01*
X63804Y323467D01*
X63758Y323357D01*
X63716Y323245D01*
X63677Y323132D01*
X63642Y323018D01*
X63611Y322903D01*
X63583Y322786D01*
X63560Y322669D01*
X63540Y322552D01*
X63524Y322433D01*
X63512Y322314D01*
X63504Y322195D01*
X63500Y322076D01*
X63500Y321956D01*
X63504Y321837D01*
X63512Y321718D01*
X63524Y321599D01*
X63540Y321480D01*
X63560Y321363D01*
X63583Y321246D01*
X63611Y321129D01*
X63642Y321014D01*
X63677Y320900D01*
X63716Y320787D01*
X63758Y320675D01*
X63804Y320565D01*
X63854Y320457D01*
X63907Y320350D01*
X63964Y320245D01*
X64024Y320141D01*
X64088Y320040D01*
X64155Y319942D01*
X64225Y319845D01*
X64299Y319751D01*
X64375Y319659D01*
X64455Y319570D01*
X64537Y319483D01*
X64622Y319399D01*
X64710Y319318D01*
X64800Y319241D01*
X64893Y319166D01*
X64989Y319094D01*
X65087Y319025D01*
X65187Y318960D01*
X65289Y318898D01*
X65393Y318839D01*
X65499Y318784D01*
X65607Y318733D01*
X65716Y318685D01*
X65827Y318640D01*
X65939Y318600D01*
X66053Y318563D01*
X66168Y318530D01*
X66283Y318500D01*
X66400Y318475D01*
X66517Y318453D01*
X66636Y318436D01*
X66754Y318422D01*
X66873Y318412D01*
X66993Y318406D01*
X67112Y318404D01*
X51762Y325628D02*
X51637Y325626D01*
X51512Y325620D01*
X51387Y325611D01*
X51263Y325597D01*
X51139Y325580D01*
X51015Y325559D01*
X50893Y325534D01*
X50771Y325505D01*
X50650Y325473D01*
X50530Y325437D01*
X50411Y325397D01*
X50294Y325354D01*
X50178Y325307D01*
X50063Y325256D01*
X49951Y325202D01*
X49839Y325144D01*
X49730Y325084D01*
X49623Y325019D01*
X49517Y324952D01*
X49414Y324881D01*
X49313Y324807D01*
X49214Y324730D01*
X49118Y324650D01*
X49024Y324567D01*
X48933Y324482D01*
X48844Y324393D01*
X48759Y324302D01*
X48676Y324208D01*
X48596Y324112D01*
X48519Y324013D01*
X48445Y323912D01*
X48374Y323809D01*
X48307Y323703D01*
X48242Y323596D01*
X48182Y323487D01*
X48124Y323375D01*
X48070Y323263D01*
X48019Y323148D01*
X47972Y323032D01*
X47929Y322915D01*
X47889Y322796D01*
X47853Y322676D01*
X47821Y322555D01*
X47792Y322433D01*
X47767Y322311D01*
X47746Y322187D01*
X47729Y322063D01*
X47715Y321939D01*
X47706Y321814D01*
X47700Y321689D01*
X47698Y321564D01*
X51762Y325628D02*
X51905Y325626D01*
X52047Y325620D01*
X52190Y325610D01*
X52332Y325597D01*
X52473Y325579D01*
X52615Y325558D01*
X52755Y325533D01*
X52895Y325504D01*
X53034Y325471D01*
X53172Y325434D01*
X53309Y325394D01*
X53444Y325350D01*
X53579Y325302D01*
X53712Y325250D01*
X53844Y325195D01*
X53974Y325136D01*
X54102Y325074D01*
X54229Y325008D01*
X54354Y324939D01*
X54477Y324867D01*
X54598Y324791D01*
X54716Y324712D01*
X54833Y324629D01*
X54947Y324544D01*
X55059Y324455D01*
X55168Y324364D01*
X55275Y324269D01*
X55380Y324172D01*
X55481Y324071D01*
X55580Y323968D01*
X55676Y323863D01*
X55769Y323754D01*
X55859Y323643D01*
X55946Y323530D01*
X56030Y323415D01*
X56110Y323297D01*
X56188Y323177D01*
X56262Y323055D01*
X56332Y322931D01*
X56400Y322805D01*
X56463Y322677D01*
X56524Y322548D01*
X56581Y322417D01*
X56634Y322285D01*
X56683Y322151D01*
X56729Y322016D01*
X49053Y318403D02*
X48959Y318495D01*
X48869Y318589D01*
X48781Y318686D01*
X48696Y318786D01*
X48614Y318888D01*
X48535Y318993D01*
X48460Y319100D01*
X48388Y319209D01*
X48319Y319320D01*
X48253Y319434D01*
X48191Y319549D01*
X48132Y319666D01*
X48077Y319785D01*
X48026Y319905D01*
X47978Y320027D01*
X47933Y320150D01*
X47893Y320274D01*
X47856Y320400D01*
X47823Y320527D01*
X47794Y320654D01*
X47768Y320783D01*
X47747Y320912D01*
X47729Y321042D01*
X47716Y321172D01*
X47706Y321302D01*
X47700Y321433D01*
X47698Y321564D01*
X49052Y318403D02*
X56729Y309372D01*
X47698Y309372D01*
X66209Y300228D02*
X71628Y283972D01*
X60791Y283972D02*
X66209Y300228D01*
X62145Y288036D02*
X70273Y288036D01*
X55094Y283972D02*
X50578Y283972D01*
X50445Y283974D01*
X50313Y283980D01*
X50181Y283990D01*
X50049Y284003D01*
X49917Y284021D01*
X49787Y284042D01*
X49656Y284067D01*
X49527Y284096D01*
X49399Y284129D01*
X49271Y284165D01*
X49145Y284205D01*
X49020Y284249D01*
X48896Y284297D01*
X48774Y284348D01*
X48653Y284403D01*
X48534Y284461D01*
X48416Y284523D01*
X48301Y284588D01*
X48187Y284657D01*
X48076Y284728D01*
X47967Y284804D01*
X47860Y284882D01*
X47755Y284963D01*
X47653Y285048D01*
X47553Y285135D01*
X47456Y285225D01*
X47361Y285318D01*
X47270Y285414D01*
X47181Y285512D01*
X47095Y285613D01*
X47012Y285717D01*
X46932Y285823D01*
X46856Y285931D01*
X46782Y286041D01*
X46712Y286154D01*
X46645Y286268D01*
X46582Y286385D01*
X46522Y286503D01*
X46465Y286623D01*
X46412Y286745D01*
X46363Y286868D01*
X46317Y286992D01*
X46275Y287118D01*
X46237Y287245D01*
X46202Y287373D01*
X46171Y287502D01*
X46144Y287631D01*
X46121Y287762D01*
X46101Y287893D01*
X46086Y288025D01*
X46074Y288157D01*
X46066Y288289D01*
X46062Y288422D01*
X46062Y288554D01*
X46066Y288687D01*
X46074Y288819D01*
X46086Y288951D01*
X46101Y289083D01*
X46121Y289214D01*
X46144Y289345D01*
X46171Y289474D01*
X46202Y289603D01*
X46237Y289731D01*
X46275Y289858D01*
X46317Y289984D01*
X46363Y290108D01*
X46412Y290231D01*
X46465Y290353D01*
X46522Y290473D01*
X46582Y290591D01*
X46645Y290708D01*
X46712Y290822D01*
X46782Y290935D01*
X46856Y291045D01*
X46932Y291153D01*
X47012Y291259D01*
X47095Y291363D01*
X47181Y291464D01*
X47270Y291562D01*
X47361Y291658D01*
X47456Y291751D01*
X47553Y291841D01*
X47653Y291928D01*
X47755Y292013D01*
X47860Y292094D01*
X47967Y292172D01*
X48076Y292248D01*
X48187Y292319D01*
X48301Y292388D01*
X48416Y292453D01*
X48534Y292515D01*
X48653Y292573D01*
X48774Y292628D01*
X48896Y292679D01*
X49020Y292727D01*
X49145Y292771D01*
X49271Y292811D01*
X49399Y292847D01*
X49527Y292880D01*
X49656Y292909D01*
X49787Y292934D01*
X49917Y292955D01*
X50049Y292973D01*
X50181Y292986D01*
X50313Y292996D01*
X50445Y293002D01*
X50578Y293004D01*
X49675Y300228D02*
X55094Y300228D01*
X49675Y300228D02*
X49556Y300226D01*
X49436Y300220D01*
X49317Y300210D01*
X49199Y300196D01*
X49080Y300179D01*
X48963Y300157D01*
X48846Y300132D01*
X48731Y300102D01*
X48616Y300069D01*
X48502Y300032D01*
X48390Y299992D01*
X48279Y299947D01*
X48170Y299899D01*
X48062Y299848D01*
X47956Y299793D01*
X47852Y299734D01*
X47750Y299672D01*
X47650Y299607D01*
X47552Y299538D01*
X47456Y299466D01*
X47363Y299391D01*
X47273Y299314D01*
X47185Y299233D01*
X47100Y299149D01*
X47018Y299062D01*
X46938Y298973D01*
X46862Y298881D01*
X46788Y298787D01*
X46718Y298690D01*
X46651Y298592D01*
X46587Y298491D01*
X46527Y298387D01*
X46470Y298282D01*
X46417Y298175D01*
X46367Y298067D01*
X46321Y297957D01*
X46279Y297845D01*
X46240Y297732D01*
X46205Y297618D01*
X46174Y297503D01*
X46146Y297386D01*
X46123Y297269D01*
X46103Y297152D01*
X46087Y297033D01*
X46075Y296914D01*
X46067Y296795D01*
X46063Y296676D01*
X46063Y296556D01*
X46067Y296437D01*
X46075Y296318D01*
X46087Y296199D01*
X46103Y296080D01*
X46123Y295963D01*
X46146Y295846D01*
X46174Y295729D01*
X46205Y295614D01*
X46240Y295500D01*
X46279Y295387D01*
X46321Y295275D01*
X46367Y295165D01*
X46417Y295057D01*
X46470Y294950D01*
X46527Y294845D01*
X46587Y294741D01*
X46651Y294640D01*
X46718Y294542D01*
X46788Y294445D01*
X46862Y294351D01*
X46938Y294259D01*
X47018Y294170D01*
X47100Y294083D01*
X47185Y293999D01*
X47273Y293918D01*
X47363Y293841D01*
X47456Y293766D01*
X47552Y293694D01*
X47650Y293625D01*
X47750Y293560D01*
X47852Y293498D01*
X47956Y293439D01*
X48062Y293384D01*
X48170Y293333D01*
X48279Y293285D01*
X48390Y293240D01*
X48502Y293200D01*
X48616Y293163D01*
X48731Y293130D01*
X48846Y293100D01*
X48963Y293075D01*
X49080Y293053D01*
X49199Y293036D01*
X49317Y293022D01*
X49436Y293012D01*
X49556Y293006D01*
X49675Y293004D01*
X49675Y293003D02*
X53287Y293003D01*
X67112Y267603D02*
X71628Y267603D01*
X67112Y267604D02*
X66979Y267602D01*
X66847Y267596D01*
X66715Y267586D01*
X66583Y267573D01*
X66451Y267555D01*
X66321Y267534D01*
X66190Y267509D01*
X66061Y267480D01*
X65933Y267447D01*
X65805Y267411D01*
X65679Y267371D01*
X65554Y267327D01*
X65430Y267279D01*
X65308Y267228D01*
X65187Y267173D01*
X65068Y267115D01*
X64950Y267053D01*
X64835Y266988D01*
X64721Y266919D01*
X64610Y266848D01*
X64501Y266772D01*
X64394Y266694D01*
X64289Y266613D01*
X64187Y266528D01*
X64087Y266441D01*
X63990Y266351D01*
X63895Y266258D01*
X63804Y266162D01*
X63715Y266064D01*
X63629Y265963D01*
X63546Y265859D01*
X63466Y265753D01*
X63390Y265645D01*
X63316Y265535D01*
X63246Y265422D01*
X63179Y265308D01*
X63116Y265191D01*
X63056Y265073D01*
X62999Y264953D01*
X62946Y264831D01*
X62897Y264708D01*
X62851Y264584D01*
X62809Y264458D01*
X62771Y264331D01*
X62736Y264203D01*
X62705Y264074D01*
X62678Y263945D01*
X62655Y263814D01*
X62635Y263683D01*
X62620Y263551D01*
X62608Y263419D01*
X62600Y263287D01*
X62596Y263154D01*
X62596Y263022D01*
X62600Y262889D01*
X62608Y262757D01*
X62620Y262625D01*
X62635Y262493D01*
X62655Y262362D01*
X62678Y262231D01*
X62705Y262102D01*
X62736Y261973D01*
X62771Y261845D01*
X62809Y261718D01*
X62851Y261592D01*
X62897Y261468D01*
X62946Y261345D01*
X62999Y261223D01*
X63056Y261103D01*
X63116Y260985D01*
X63179Y260868D01*
X63246Y260754D01*
X63316Y260641D01*
X63390Y260531D01*
X63466Y260423D01*
X63546Y260317D01*
X63629Y260213D01*
X63715Y260112D01*
X63804Y260014D01*
X63895Y259918D01*
X63990Y259825D01*
X64087Y259735D01*
X64187Y259648D01*
X64289Y259563D01*
X64394Y259482D01*
X64501Y259404D01*
X64610Y259328D01*
X64721Y259257D01*
X64835Y259188D01*
X64950Y259123D01*
X65068Y259061D01*
X65187Y259003D01*
X65308Y258948D01*
X65430Y258897D01*
X65554Y258849D01*
X65679Y258805D01*
X65805Y258765D01*
X65933Y258729D01*
X66061Y258696D01*
X66190Y258667D01*
X66321Y258642D01*
X66451Y258621D01*
X66583Y258603D01*
X66715Y258590D01*
X66847Y258580D01*
X66979Y258574D01*
X67112Y258572D01*
X71628Y258572D01*
X71628Y274828D01*
X67112Y274828D01*
X66993Y274826D01*
X66873Y274820D01*
X66754Y274810D01*
X66636Y274796D01*
X66517Y274779D01*
X66400Y274757D01*
X66283Y274732D01*
X66168Y274702D01*
X66053Y274669D01*
X65939Y274632D01*
X65827Y274592D01*
X65716Y274547D01*
X65607Y274499D01*
X65499Y274448D01*
X65393Y274393D01*
X65289Y274334D01*
X65187Y274272D01*
X65087Y274207D01*
X64989Y274138D01*
X64893Y274066D01*
X64800Y273991D01*
X64710Y273914D01*
X64622Y273833D01*
X64537Y273749D01*
X64455Y273662D01*
X64375Y273573D01*
X64299Y273481D01*
X64225Y273387D01*
X64155Y273290D01*
X64088Y273192D01*
X64024Y273091D01*
X63964Y272987D01*
X63907Y272882D01*
X63854Y272775D01*
X63804Y272667D01*
X63758Y272557D01*
X63716Y272445D01*
X63677Y272332D01*
X63642Y272218D01*
X63611Y272103D01*
X63583Y271986D01*
X63560Y271869D01*
X63540Y271752D01*
X63524Y271633D01*
X63512Y271514D01*
X63504Y271395D01*
X63500Y271276D01*
X63500Y271156D01*
X63504Y271037D01*
X63512Y270918D01*
X63524Y270799D01*
X63540Y270680D01*
X63560Y270563D01*
X63583Y270446D01*
X63611Y270329D01*
X63642Y270214D01*
X63677Y270100D01*
X63716Y269987D01*
X63758Y269875D01*
X63804Y269765D01*
X63854Y269657D01*
X63907Y269550D01*
X63964Y269445D01*
X64024Y269341D01*
X64088Y269240D01*
X64155Y269142D01*
X64225Y269045D01*
X64299Y268951D01*
X64375Y268859D01*
X64455Y268770D01*
X64537Y268683D01*
X64622Y268599D01*
X64710Y268518D01*
X64800Y268441D01*
X64893Y268366D01*
X64989Y268294D01*
X65087Y268225D01*
X65187Y268160D01*
X65289Y268098D01*
X65393Y268039D01*
X65499Y267984D01*
X65607Y267933D01*
X65716Y267885D01*
X65827Y267840D01*
X65939Y267800D01*
X66053Y267763D01*
X66168Y267730D01*
X66283Y267700D01*
X66400Y267675D01*
X66517Y267653D01*
X66636Y267636D01*
X66754Y267622D01*
X66873Y267612D01*
X66993Y267606D01*
X67112Y267604D01*
X56729Y258572D02*
X51310Y258572D01*
X51192Y258574D01*
X51074Y258580D01*
X50956Y258589D01*
X50839Y258603D01*
X50722Y258620D01*
X50605Y258641D01*
X50490Y258666D01*
X50375Y258695D01*
X50261Y258728D01*
X50149Y258764D01*
X50038Y258804D01*
X49928Y258847D01*
X49819Y258894D01*
X49712Y258944D01*
X49607Y258999D01*
X49504Y259056D01*
X49403Y259117D01*
X49303Y259181D01*
X49206Y259248D01*
X49111Y259318D01*
X49019Y259392D01*
X48928Y259468D01*
X48841Y259548D01*
X48756Y259630D01*
X48674Y259715D01*
X48594Y259802D01*
X48518Y259893D01*
X48444Y259985D01*
X48374Y260080D01*
X48307Y260177D01*
X48243Y260277D01*
X48182Y260378D01*
X48125Y260481D01*
X48070Y260586D01*
X48020Y260693D01*
X47973Y260802D01*
X47930Y260912D01*
X47890Y261023D01*
X47854Y261135D01*
X47821Y261249D01*
X47792Y261364D01*
X47767Y261479D01*
X47746Y261596D01*
X47729Y261713D01*
X47715Y261830D01*
X47706Y261948D01*
X47700Y262066D01*
X47698Y262184D01*
X47698Y263991D01*
X47700Y264109D01*
X47706Y264227D01*
X47715Y264345D01*
X47729Y264462D01*
X47746Y264579D01*
X47767Y264696D01*
X47792Y264811D01*
X47821Y264926D01*
X47854Y265040D01*
X47890Y265152D01*
X47930Y265263D01*
X47973Y265373D01*
X48020Y265482D01*
X48070Y265589D01*
X48125Y265694D01*
X48182Y265797D01*
X48243Y265898D01*
X48307Y265998D01*
X48374Y266095D01*
X48444Y266190D01*
X48518Y266282D01*
X48594Y266373D01*
X48674Y266460D01*
X48756Y266545D01*
X48841Y266627D01*
X48928Y266707D01*
X49019Y266783D01*
X49111Y266857D01*
X49206Y266927D01*
X49303Y266994D01*
X49403Y267058D01*
X49504Y267119D01*
X49607Y267176D01*
X49712Y267231D01*
X49819Y267281D01*
X49928Y267328D01*
X50038Y267371D01*
X50149Y267411D01*
X50261Y267447D01*
X50375Y267480D01*
X50490Y267509D01*
X50605Y267534D01*
X50722Y267555D01*
X50839Y267572D01*
X50956Y267586D01*
X51074Y267595D01*
X51192Y267601D01*
X51310Y267603D01*
X56729Y267603D01*
X56729Y274828D01*
X47698Y274828D01*
X67112Y242203D02*
X71628Y242203D01*
X67112Y242204D02*
X66979Y242202D01*
X66847Y242196D01*
X66715Y242186D01*
X66583Y242173D01*
X66451Y242155D01*
X66321Y242134D01*
X66190Y242109D01*
X66061Y242080D01*
X65933Y242047D01*
X65805Y242011D01*
X65679Y241971D01*
X65554Y241927D01*
X65430Y241879D01*
X65308Y241828D01*
X65187Y241773D01*
X65068Y241715D01*
X64950Y241653D01*
X64835Y241588D01*
X64721Y241519D01*
X64610Y241448D01*
X64501Y241372D01*
X64394Y241294D01*
X64289Y241213D01*
X64187Y241128D01*
X64087Y241041D01*
X63990Y240951D01*
X63895Y240858D01*
X63804Y240762D01*
X63715Y240664D01*
X63629Y240563D01*
X63546Y240459D01*
X63466Y240353D01*
X63390Y240245D01*
X63316Y240135D01*
X63246Y240022D01*
X63179Y239908D01*
X63116Y239791D01*
X63056Y239673D01*
X62999Y239553D01*
X62946Y239431D01*
X62897Y239308D01*
X62851Y239184D01*
X62809Y239058D01*
X62771Y238931D01*
X62736Y238803D01*
X62705Y238674D01*
X62678Y238545D01*
X62655Y238414D01*
X62635Y238283D01*
X62620Y238151D01*
X62608Y238019D01*
X62600Y237887D01*
X62596Y237754D01*
X62596Y237622D01*
X62600Y237489D01*
X62608Y237357D01*
X62620Y237225D01*
X62635Y237093D01*
X62655Y236962D01*
X62678Y236831D01*
X62705Y236702D01*
X62736Y236573D01*
X62771Y236445D01*
X62809Y236318D01*
X62851Y236192D01*
X62897Y236068D01*
X62946Y235945D01*
X62999Y235823D01*
X63056Y235703D01*
X63116Y235585D01*
X63179Y235468D01*
X63246Y235354D01*
X63316Y235241D01*
X63390Y235131D01*
X63466Y235023D01*
X63546Y234917D01*
X63629Y234813D01*
X63715Y234712D01*
X63804Y234614D01*
X63895Y234518D01*
X63990Y234425D01*
X64087Y234335D01*
X64187Y234248D01*
X64289Y234163D01*
X64394Y234082D01*
X64501Y234004D01*
X64610Y233928D01*
X64721Y233857D01*
X64835Y233788D01*
X64950Y233723D01*
X65068Y233661D01*
X65187Y233603D01*
X65308Y233548D01*
X65430Y233497D01*
X65554Y233449D01*
X65679Y233405D01*
X65805Y233365D01*
X65933Y233329D01*
X66061Y233296D01*
X66190Y233267D01*
X66321Y233242D01*
X66451Y233221D01*
X66583Y233203D01*
X66715Y233190D01*
X66847Y233180D01*
X66979Y233174D01*
X67112Y233172D01*
X71628Y233172D01*
X71628Y249428D01*
X67112Y249428D01*
X66993Y249426D01*
X66873Y249420D01*
X66754Y249410D01*
X66636Y249396D01*
X66517Y249379D01*
X66400Y249357D01*
X66283Y249332D01*
X66168Y249302D01*
X66053Y249269D01*
X65939Y249232D01*
X65827Y249192D01*
X65716Y249147D01*
X65607Y249099D01*
X65499Y249048D01*
X65393Y248993D01*
X65289Y248934D01*
X65187Y248872D01*
X65087Y248807D01*
X64989Y248738D01*
X64893Y248666D01*
X64800Y248591D01*
X64710Y248514D01*
X64622Y248433D01*
X64537Y248349D01*
X64455Y248262D01*
X64375Y248173D01*
X64299Y248081D01*
X64225Y247987D01*
X64155Y247890D01*
X64088Y247792D01*
X64024Y247691D01*
X63964Y247587D01*
X63907Y247482D01*
X63854Y247375D01*
X63804Y247267D01*
X63758Y247157D01*
X63716Y247045D01*
X63677Y246932D01*
X63642Y246818D01*
X63611Y246703D01*
X63583Y246586D01*
X63560Y246469D01*
X63540Y246352D01*
X63524Y246233D01*
X63512Y246114D01*
X63504Y245995D01*
X63500Y245876D01*
X63500Y245756D01*
X63504Y245637D01*
X63512Y245518D01*
X63524Y245399D01*
X63540Y245280D01*
X63560Y245163D01*
X63583Y245046D01*
X63611Y244929D01*
X63642Y244814D01*
X63677Y244700D01*
X63716Y244587D01*
X63758Y244475D01*
X63804Y244365D01*
X63854Y244257D01*
X63907Y244150D01*
X63964Y244045D01*
X64024Y243941D01*
X64088Y243840D01*
X64155Y243742D01*
X64225Y243645D01*
X64299Y243551D01*
X64375Y243459D01*
X64455Y243370D01*
X64537Y243283D01*
X64622Y243199D01*
X64710Y243118D01*
X64800Y243041D01*
X64893Y242966D01*
X64989Y242894D01*
X65087Y242825D01*
X65187Y242760D01*
X65289Y242698D01*
X65393Y242639D01*
X65499Y242584D01*
X65607Y242533D01*
X65716Y242485D01*
X65827Y242440D01*
X65939Y242400D01*
X66053Y242363D01*
X66168Y242330D01*
X66283Y242300D01*
X66400Y242275D01*
X66517Y242253D01*
X66636Y242236D01*
X66754Y242222D01*
X66873Y242212D01*
X66993Y242206D01*
X67112Y242204D01*
X56729Y242203D02*
X51310Y242203D01*
X51192Y242201D01*
X51074Y242195D01*
X50956Y242186D01*
X50839Y242172D01*
X50722Y242155D01*
X50605Y242134D01*
X50490Y242109D01*
X50375Y242080D01*
X50261Y242047D01*
X50149Y242011D01*
X50038Y241971D01*
X49928Y241928D01*
X49819Y241881D01*
X49712Y241831D01*
X49607Y241776D01*
X49504Y241719D01*
X49403Y241658D01*
X49303Y241594D01*
X49206Y241527D01*
X49111Y241457D01*
X49019Y241383D01*
X48928Y241307D01*
X48841Y241227D01*
X48756Y241145D01*
X48674Y241060D01*
X48594Y240973D01*
X48518Y240882D01*
X48444Y240790D01*
X48374Y240695D01*
X48307Y240598D01*
X48243Y240498D01*
X48182Y240397D01*
X48125Y240294D01*
X48070Y240189D01*
X48020Y240082D01*
X47973Y239973D01*
X47930Y239863D01*
X47890Y239752D01*
X47854Y239640D01*
X47821Y239526D01*
X47792Y239411D01*
X47767Y239296D01*
X47746Y239179D01*
X47729Y239062D01*
X47715Y238945D01*
X47706Y238827D01*
X47700Y238709D01*
X47698Y238591D01*
X47698Y237688D01*
X47697Y237688D02*
X47699Y237555D01*
X47705Y237423D01*
X47715Y237291D01*
X47728Y237159D01*
X47746Y237027D01*
X47767Y236897D01*
X47792Y236766D01*
X47821Y236637D01*
X47854Y236509D01*
X47890Y236381D01*
X47930Y236255D01*
X47974Y236130D01*
X48022Y236006D01*
X48073Y235884D01*
X48128Y235763D01*
X48186Y235644D01*
X48248Y235526D01*
X48313Y235411D01*
X48382Y235297D01*
X48453Y235186D01*
X48529Y235077D01*
X48607Y234970D01*
X48688Y234865D01*
X48773Y234763D01*
X48860Y234663D01*
X48950Y234566D01*
X49043Y234471D01*
X49139Y234380D01*
X49237Y234291D01*
X49338Y234205D01*
X49442Y234122D01*
X49548Y234042D01*
X49656Y233966D01*
X49766Y233892D01*
X49879Y233822D01*
X49993Y233755D01*
X50110Y233692D01*
X50228Y233632D01*
X50348Y233575D01*
X50470Y233522D01*
X50593Y233473D01*
X50717Y233427D01*
X50843Y233385D01*
X50970Y233347D01*
X51098Y233312D01*
X51227Y233281D01*
X51356Y233254D01*
X51487Y233231D01*
X51618Y233211D01*
X51750Y233196D01*
X51882Y233184D01*
X52014Y233176D01*
X52147Y233172D01*
X52279Y233172D01*
X52412Y233176D01*
X52544Y233184D01*
X52676Y233196D01*
X52808Y233211D01*
X52939Y233231D01*
X53070Y233254D01*
X53199Y233281D01*
X53328Y233312D01*
X53456Y233347D01*
X53583Y233385D01*
X53709Y233427D01*
X53833Y233473D01*
X53956Y233522D01*
X54078Y233575D01*
X54198Y233632D01*
X54316Y233692D01*
X54433Y233755D01*
X54547Y233822D01*
X54660Y233892D01*
X54770Y233966D01*
X54878Y234042D01*
X54984Y234122D01*
X55088Y234205D01*
X55189Y234291D01*
X55287Y234380D01*
X55383Y234471D01*
X55476Y234566D01*
X55566Y234663D01*
X55653Y234763D01*
X55738Y234865D01*
X55819Y234970D01*
X55897Y235077D01*
X55973Y235186D01*
X56044Y235297D01*
X56113Y235411D01*
X56178Y235526D01*
X56240Y235644D01*
X56298Y235763D01*
X56353Y235884D01*
X56404Y236006D01*
X56452Y236130D01*
X56496Y236255D01*
X56536Y236381D01*
X56572Y236509D01*
X56605Y236637D01*
X56634Y236766D01*
X56659Y236897D01*
X56680Y237027D01*
X56698Y237159D01*
X56711Y237291D01*
X56721Y237423D01*
X56727Y237555D01*
X56729Y237688D01*
X56729Y242203D01*
X56727Y242378D01*
X56721Y242552D01*
X56710Y242726D01*
X56695Y242900D01*
X56676Y243074D01*
X56653Y243247D01*
X56626Y243419D01*
X56594Y243591D01*
X56559Y243762D01*
X56519Y243932D01*
X56475Y244101D01*
X56427Y244269D01*
X56375Y244436D01*
X56319Y244601D01*
X56259Y244765D01*
X56196Y244928D01*
X56128Y245088D01*
X56056Y245248D01*
X55981Y245405D01*
X55901Y245561D01*
X55818Y245714D01*
X55732Y245866D01*
X55641Y246015D01*
X55547Y246162D01*
X55450Y246307D01*
X55349Y246450D01*
X55245Y246590D01*
X55137Y246727D01*
X55026Y246862D01*
X54912Y246994D01*
X54795Y247123D01*
X54674Y247250D01*
X54551Y247373D01*
X54424Y247494D01*
X54295Y247611D01*
X54163Y247725D01*
X54028Y247836D01*
X53891Y247944D01*
X53751Y248048D01*
X53608Y248149D01*
X53463Y248246D01*
X53316Y248340D01*
X53167Y248431D01*
X53015Y248517D01*
X52862Y248600D01*
X52706Y248680D01*
X52549Y248755D01*
X52389Y248827D01*
X52229Y248895D01*
X52066Y248958D01*
X51902Y249018D01*
X51737Y249074D01*
X51570Y249126D01*
X51402Y249174D01*
X51233Y249218D01*
X51063Y249258D01*
X50892Y249293D01*
X50720Y249325D01*
X50548Y249352D01*
X50375Y249375D01*
X50201Y249394D01*
X50027Y249409D01*
X49853Y249420D01*
X49679Y249426D01*
X49504Y249428D01*
X81788Y225298D02*
X76369Y209042D01*
X70951Y225298D01*
X63864Y225298D02*
X63864Y209042D01*
X62058Y209042D02*
X65671Y209042D01*
X65671Y225298D02*
X62058Y225298D01*
X55354Y225298D02*
X55354Y209042D01*
X46323Y209042D02*
X55354Y225298D01*
X46323Y225298D02*
X46323Y209042D01*
X79812Y182372D02*
X84328Y182372D01*
X79812Y182372D02*
X79679Y182374D01*
X79547Y182380D01*
X79415Y182390D01*
X79283Y182403D01*
X79151Y182421D01*
X79021Y182442D01*
X78890Y182467D01*
X78761Y182496D01*
X78633Y182529D01*
X78505Y182565D01*
X78379Y182605D01*
X78254Y182649D01*
X78130Y182697D01*
X78008Y182748D01*
X77887Y182803D01*
X77768Y182861D01*
X77650Y182923D01*
X77535Y182988D01*
X77421Y183057D01*
X77310Y183128D01*
X77201Y183204D01*
X77094Y183282D01*
X76989Y183363D01*
X76887Y183448D01*
X76787Y183535D01*
X76690Y183625D01*
X76595Y183718D01*
X76504Y183814D01*
X76415Y183912D01*
X76329Y184013D01*
X76246Y184117D01*
X76166Y184223D01*
X76090Y184331D01*
X76016Y184441D01*
X75946Y184554D01*
X75879Y184668D01*
X75816Y184785D01*
X75756Y184903D01*
X75699Y185023D01*
X75646Y185145D01*
X75597Y185268D01*
X75551Y185392D01*
X75509Y185518D01*
X75471Y185645D01*
X75436Y185773D01*
X75405Y185902D01*
X75378Y186031D01*
X75355Y186162D01*
X75335Y186293D01*
X75320Y186425D01*
X75308Y186557D01*
X75300Y186689D01*
X75296Y186822D01*
X75296Y186954D01*
X75300Y187087D01*
X75308Y187219D01*
X75320Y187351D01*
X75335Y187483D01*
X75355Y187614D01*
X75378Y187745D01*
X75405Y187874D01*
X75436Y188003D01*
X75471Y188131D01*
X75509Y188258D01*
X75551Y188384D01*
X75597Y188508D01*
X75646Y188631D01*
X75699Y188753D01*
X75756Y188873D01*
X75816Y188991D01*
X75879Y189108D01*
X75946Y189222D01*
X76016Y189335D01*
X76090Y189445D01*
X76166Y189553D01*
X76246Y189659D01*
X76329Y189763D01*
X76415Y189864D01*
X76504Y189962D01*
X76595Y190058D01*
X76690Y190151D01*
X76787Y190241D01*
X76887Y190328D01*
X76989Y190413D01*
X77094Y190494D01*
X77201Y190572D01*
X77310Y190648D01*
X77421Y190719D01*
X77535Y190788D01*
X77650Y190853D01*
X77768Y190915D01*
X77887Y190973D01*
X78008Y191028D01*
X78130Y191079D01*
X78254Y191127D01*
X78379Y191171D01*
X78505Y191211D01*
X78633Y191247D01*
X78761Y191280D01*
X78890Y191309D01*
X79021Y191334D01*
X79151Y191355D01*
X79283Y191373D01*
X79415Y191386D01*
X79547Y191396D01*
X79679Y191402D01*
X79812Y191404D01*
X78909Y198628D02*
X84328Y198628D01*
X78909Y198628D02*
X78790Y198626D01*
X78670Y198620D01*
X78551Y198610D01*
X78433Y198596D01*
X78314Y198579D01*
X78197Y198557D01*
X78080Y198532D01*
X77965Y198502D01*
X77850Y198469D01*
X77736Y198432D01*
X77624Y198392D01*
X77513Y198347D01*
X77404Y198299D01*
X77296Y198248D01*
X77190Y198193D01*
X77086Y198134D01*
X76984Y198072D01*
X76884Y198007D01*
X76786Y197938D01*
X76690Y197866D01*
X76597Y197791D01*
X76507Y197714D01*
X76419Y197633D01*
X76334Y197549D01*
X76252Y197462D01*
X76172Y197373D01*
X76096Y197281D01*
X76022Y197187D01*
X75952Y197090D01*
X75885Y196992D01*
X75821Y196891D01*
X75761Y196787D01*
X75704Y196682D01*
X75651Y196575D01*
X75601Y196467D01*
X75555Y196357D01*
X75513Y196245D01*
X75474Y196132D01*
X75439Y196018D01*
X75408Y195903D01*
X75380Y195786D01*
X75357Y195669D01*
X75337Y195552D01*
X75321Y195433D01*
X75309Y195314D01*
X75301Y195195D01*
X75297Y195076D01*
X75297Y194956D01*
X75301Y194837D01*
X75309Y194718D01*
X75321Y194599D01*
X75337Y194480D01*
X75357Y194363D01*
X75380Y194246D01*
X75408Y194129D01*
X75439Y194014D01*
X75474Y193900D01*
X75513Y193787D01*
X75555Y193675D01*
X75601Y193565D01*
X75651Y193457D01*
X75704Y193350D01*
X75761Y193245D01*
X75821Y193141D01*
X75885Y193040D01*
X75952Y192942D01*
X76022Y192845D01*
X76096Y192751D01*
X76172Y192659D01*
X76252Y192570D01*
X76334Y192483D01*
X76419Y192399D01*
X76507Y192318D01*
X76597Y192241D01*
X76690Y192166D01*
X76786Y192094D01*
X76884Y192025D01*
X76984Y191960D01*
X77086Y191898D01*
X77190Y191839D01*
X77296Y191784D01*
X77404Y191733D01*
X77513Y191685D01*
X77624Y191640D01*
X77736Y191600D01*
X77850Y191563D01*
X77965Y191530D01*
X78080Y191500D01*
X78197Y191475D01*
X78314Y191453D01*
X78433Y191436D01*
X78551Y191422D01*
X78670Y191412D01*
X78790Y191406D01*
X78909Y191404D01*
X78909Y191403D02*
X82522Y191403D01*
X69600Y198628D02*
X64181Y182372D01*
X58763Y198628D01*
X53066Y182372D02*
X48550Y182372D01*
X48417Y182374D01*
X48285Y182380D01*
X48153Y182390D01*
X48021Y182403D01*
X47889Y182421D01*
X47759Y182442D01*
X47628Y182467D01*
X47499Y182496D01*
X47371Y182529D01*
X47243Y182565D01*
X47117Y182605D01*
X46992Y182649D01*
X46868Y182697D01*
X46746Y182748D01*
X46625Y182803D01*
X46506Y182861D01*
X46388Y182923D01*
X46273Y182988D01*
X46159Y183057D01*
X46048Y183128D01*
X45939Y183204D01*
X45832Y183282D01*
X45727Y183363D01*
X45625Y183448D01*
X45525Y183535D01*
X45428Y183625D01*
X45333Y183718D01*
X45242Y183814D01*
X45153Y183912D01*
X45067Y184013D01*
X44984Y184117D01*
X44904Y184223D01*
X44828Y184331D01*
X44754Y184441D01*
X44684Y184554D01*
X44617Y184668D01*
X44554Y184785D01*
X44494Y184903D01*
X44437Y185023D01*
X44384Y185145D01*
X44335Y185268D01*
X44289Y185392D01*
X44247Y185518D01*
X44209Y185645D01*
X44174Y185773D01*
X44143Y185902D01*
X44116Y186031D01*
X44093Y186162D01*
X44073Y186293D01*
X44058Y186425D01*
X44046Y186557D01*
X44038Y186689D01*
X44034Y186822D01*
X44034Y186954D01*
X44038Y187087D01*
X44046Y187219D01*
X44058Y187351D01*
X44073Y187483D01*
X44093Y187614D01*
X44116Y187745D01*
X44143Y187874D01*
X44174Y188003D01*
X44209Y188131D01*
X44247Y188258D01*
X44289Y188384D01*
X44335Y188508D01*
X44384Y188631D01*
X44437Y188753D01*
X44494Y188873D01*
X44554Y188991D01*
X44617Y189108D01*
X44684Y189222D01*
X44754Y189335D01*
X44828Y189445D01*
X44904Y189553D01*
X44984Y189659D01*
X45067Y189763D01*
X45153Y189864D01*
X45242Y189962D01*
X45333Y190058D01*
X45428Y190151D01*
X45525Y190241D01*
X45625Y190328D01*
X45727Y190413D01*
X45832Y190494D01*
X45939Y190572D01*
X46048Y190648D01*
X46159Y190719D01*
X46273Y190788D01*
X46388Y190853D01*
X46506Y190915D01*
X46625Y190973D01*
X46746Y191028D01*
X46868Y191079D01*
X46992Y191127D01*
X47117Y191171D01*
X47243Y191211D01*
X47371Y191247D01*
X47499Y191280D01*
X47628Y191309D01*
X47759Y191334D01*
X47889Y191355D01*
X48021Y191373D01*
X48153Y191386D01*
X48285Y191396D01*
X48417Y191402D01*
X48550Y191404D01*
X47647Y198628D02*
X53066Y198628D01*
X47647Y198628D02*
X47528Y198626D01*
X47408Y198620D01*
X47289Y198610D01*
X47171Y198596D01*
X47052Y198579D01*
X46935Y198557D01*
X46818Y198532D01*
X46703Y198502D01*
X46588Y198469D01*
X46474Y198432D01*
X46362Y198392D01*
X46251Y198347D01*
X46142Y198299D01*
X46034Y198248D01*
X45928Y198193D01*
X45824Y198134D01*
X45722Y198072D01*
X45622Y198007D01*
X45524Y197938D01*
X45428Y197866D01*
X45335Y197791D01*
X45245Y197714D01*
X45157Y197633D01*
X45072Y197549D01*
X44990Y197462D01*
X44910Y197373D01*
X44834Y197281D01*
X44760Y197187D01*
X44690Y197090D01*
X44623Y196992D01*
X44559Y196891D01*
X44499Y196787D01*
X44442Y196682D01*
X44389Y196575D01*
X44339Y196467D01*
X44293Y196357D01*
X44251Y196245D01*
X44212Y196132D01*
X44177Y196018D01*
X44146Y195903D01*
X44118Y195786D01*
X44095Y195669D01*
X44075Y195552D01*
X44059Y195433D01*
X44047Y195314D01*
X44039Y195195D01*
X44035Y195076D01*
X44035Y194956D01*
X44039Y194837D01*
X44047Y194718D01*
X44059Y194599D01*
X44075Y194480D01*
X44095Y194363D01*
X44118Y194246D01*
X44146Y194129D01*
X44177Y194014D01*
X44212Y193900D01*
X44251Y193787D01*
X44293Y193675D01*
X44339Y193565D01*
X44389Y193457D01*
X44442Y193350D01*
X44499Y193245D01*
X44559Y193141D01*
X44623Y193040D01*
X44690Y192942D01*
X44760Y192845D01*
X44834Y192751D01*
X44910Y192659D01*
X44990Y192570D01*
X45072Y192483D01*
X45157Y192399D01*
X45245Y192318D01*
X45335Y192241D01*
X45428Y192166D01*
X45524Y192094D01*
X45622Y192025D01*
X45722Y191960D01*
X45824Y191898D01*
X45928Y191839D01*
X46034Y191784D01*
X46142Y191733D01*
X46251Y191685D01*
X46362Y191640D01*
X46474Y191600D01*
X46588Y191563D01*
X46703Y191530D01*
X46818Y191500D01*
X46935Y191475D01*
X47052Y191453D01*
X47171Y191436D01*
X47289Y191422D01*
X47408Y191412D01*
X47528Y191406D01*
X47647Y191404D01*
X47647Y191403D02*
X51259Y191403D01*
X84187Y166003D02*
X86896Y166003D01*
X84187Y166003D02*
X84187Y156972D01*
X89606Y156972D01*
X89724Y156974D01*
X89842Y156980D01*
X89960Y156989D01*
X90077Y157003D01*
X90194Y157020D01*
X90311Y157041D01*
X90426Y157066D01*
X90541Y157095D01*
X90655Y157128D01*
X90767Y157164D01*
X90878Y157204D01*
X90988Y157247D01*
X91097Y157294D01*
X91204Y157344D01*
X91309Y157399D01*
X91412Y157456D01*
X91513Y157517D01*
X91613Y157581D01*
X91710Y157648D01*
X91805Y157718D01*
X91897Y157792D01*
X91988Y157868D01*
X92075Y157948D01*
X92160Y158030D01*
X92242Y158115D01*
X92322Y158202D01*
X92398Y158293D01*
X92472Y158385D01*
X92542Y158480D01*
X92609Y158577D01*
X92673Y158677D01*
X92734Y158778D01*
X92791Y158881D01*
X92846Y158986D01*
X92896Y159093D01*
X92943Y159202D01*
X92986Y159312D01*
X93026Y159423D01*
X93062Y159535D01*
X93095Y159649D01*
X93124Y159764D01*
X93149Y159879D01*
X93170Y159996D01*
X93187Y160113D01*
X93201Y160230D01*
X93210Y160348D01*
X93216Y160466D01*
X93218Y160584D01*
X93218Y169616D01*
X93216Y169734D01*
X93210Y169852D01*
X93201Y169970D01*
X93187Y170087D01*
X93170Y170204D01*
X93149Y170321D01*
X93124Y170436D01*
X93095Y170551D01*
X93062Y170665D01*
X93026Y170777D01*
X92986Y170888D01*
X92943Y170998D01*
X92896Y171107D01*
X92846Y171214D01*
X92791Y171319D01*
X92734Y171422D01*
X92673Y171523D01*
X92609Y171623D01*
X92542Y171720D01*
X92472Y171815D01*
X92398Y171907D01*
X92322Y171998D01*
X92242Y172085D01*
X92160Y172170D01*
X92075Y172252D01*
X91988Y172332D01*
X91897Y172408D01*
X91805Y172482D01*
X91710Y172552D01*
X91613Y172619D01*
X91513Y172683D01*
X91412Y172744D01*
X91309Y172801D01*
X91204Y172856D01*
X91097Y172906D01*
X90988Y172953D01*
X90878Y172996D01*
X90767Y173036D01*
X90655Y173072D01*
X90541Y173105D01*
X90426Y173134D01*
X90311Y173159D01*
X90194Y173180D01*
X90077Y173197D01*
X89960Y173211D01*
X89842Y173220D01*
X89724Y173226D01*
X89606Y173228D01*
X84187Y173228D01*
X76545Y173228D02*
X76545Y156972D01*
X67514Y156972D02*
X76545Y173228D01*
X67514Y173228D02*
X67514Y156972D01*
X59871Y156972D02*
X59871Y173228D01*
X55356Y173228D01*
X55225Y173226D01*
X55093Y173220D01*
X54962Y173211D01*
X54832Y173197D01*
X54701Y173180D01*
X54572Y173159D01*
X54443Y173135D01*
X54315Y173106D01*
X54187Y173074D01*
X54061Y173038D01*
X53936Y172999D01*
X53811Y172956D01*
X53689Y172909D01*
X53567Y172859D01*
X53447Y172805D01*
X53329Y172748D01*
X53213Y172687D01*
X53098Y172623D01*
X52985Y172556D01*
X52874Y172485D01*
X52766Y172411D01*
X52659Y172334D01*
X52555Y172254D01*
X52453Y172171D01*
X52354Y172086D01*
X52257Y171997D01*
X52163Y171905D01*
X52071Y171811D01*
X51982Y171714D01*
X51897Y171615D01*
X51814Y171513D01*
X51734Y171409D01*
X51657Y171302D01*
X51583Y171194D01*
X51512Y171083D01*
X51445Y170970D01*
X51381Y170855D01*
X51320Y170739D01*
X51263Y170621D01*
X51209Y170501D01*
X51159Y170379D01*
X51112Y170257D01*
X51069Y170132D01*
X51030Y170007D01*
X50994Y169881D01*
X50962Y169753D01*
X50933Y169625D01*
X50909Y169496D01*
X50888Y169367D01*
X50871Y169236D01*
X50857Y169106D01*
X50848Y168975D01*
X50842Y168843D01*
X50840Y168712D01*
X50840Y161488D01*
X50842Y161357D01*
X50848Y161225D01*
X50857Y161094D01*
X50871Y160964D01*
X50888Y160833D01*
X50909Y160704D01*
X50933Y160575D01*
X50962Y160447D01*
X50994Y160319D01*
X51030Y160193D01*
X51069Y160068D01*
X51112Y159943D01*
X51159Y159821D01*
X51209Y159699D01*
X51263Y159579D01*
X51320Y159461D01*
X51381Y159345D01*
X51445Y159230D01*
X51512Y159117D01*
X51583Y159006D01*
X51657Y158898D01*
X51734Y158791D01*
X51814Y158687D01*
X51897Y158585D01*
X51982Y158486D01*
X52071Y158389D01*
X52163Y158295D01*
X52257Y158203D01*
X52354Y158114D01*
X52453Y158029D01*
X52555Y157946D01*
X52659Y157866D01*
X52766Y157789D01*
X52874Y157715D01*
X52985Y157644D01*
X53098Y157577D01*
X53213Y157513D01*
X53329Y157452D01*
X53447Y157395D01*
X53567Y157341D01*
X53689Y157291D01*
X53811Y157244D01*
X53936Y157201D01*
X54061Y157162D01*
X54187Y157126D01*
X54315Y157094D01*
X54443Y157065D01*
X54572Y157041D01*
X54701Y157020D01*
X54832Y157003D01*
X54962Y156989D01*
X55093Y156980D01*
X55225Y156974D01*
X55356Y156972D01*
X59871Y156972D01*
X84187Y140603D02*
X86896Y140603D01*
X84187Y140603D02*
X84187Y131572D01*
X89606Y131572D01*
X89724Y131574D01*
X89842Y131580D01*
X89960Y131589D01*
X90077Y131603D01*
X90194Y131620D01*
X90311Y131641D01*
X90426Y131666D01*
X90541Y131695D01*
X90655Y131728D01*
X90767Y131764D01*
X90878Y131804D01*
X90988Y131847D01*
X91097Y131894D01*
X91204Y131944D01*
X91309Y131999D01*
X91412Y132056D01*
X91513Y132117D01*
X91613Y132181D01*
X91710Y132248D01*
X91805Y132318D01*
X91897Y132392D01*
X91988Y132468D01*
X92075Y132548D01*
X92160Y132630D01*
X92242Y132715D01*
X92322Y132802D01*
X92398Y132893D01*
X92472Y132985D01*
X92542Y133080D01*
X92609Y133177D01*
X92673Y133277D01*
X92734Y133378D01*
X92791Y133481D01*
X92846Y133586D01*
X92896Y133693D01*
X92943Y133802D01*
X92986Y133912D01*
X93026Y134023D01*
X93062Y134135D01*
X93095Y134249D01*
X93124Y134364D01*
X93149Y134479D01*
X93170Y134596D01*
X93187Y134713D01*
X93201Y134830D01*
X93210Y134948D01*
X93216Y135066D01*
X93218Y135184D01*
X93218Y144216D01*
X93216Y144334D01*
X93210Y144452D01*
X93201Y144570D01*
X93187Y144687D01*
X93170Y144804D01*
X93149Y144921D01*
X93124Y145036D01*
X93095Y145151D01*
X93062Y145265D01*
X93026Y145377D01*
X92986Y145488D01*
X92943Y145598D01*
X92896Y145707D01*
X92846Y145814D01*
X92791Y145919D01*
X92734Y146022D01*
X92673Y146123D01*
X92609Y146223D01*
X92542Y146320D01*
X92472Y146415D01*
X92398Y146507D01*
X92322Y146598D01*
X92242Y146685D01*
X92160Y146770D01*
X92075Y146852D01*
X91988Y146932D01*
X91897Y147008D01*
X91805Y147082D01*
X91710Y147152D01*
X91613Y147219D01*
X91513Y147283D01*
X91412Y147344D01*
X91309Y147401D01*
X91204Y147456D01*
X91097Y147506D01*
X90988Y147553D01*
X90878Y147596D01*
X90767Y147636D01*
X90655Y147672D01*
X90541Y147705D01*
X90426Y147734D01*
X90311Y147759D01*
X90194Y147780D01*
X90077Y147797D01*
X89960Y147811D01*
X89842Y147820D01*
X89724Y147826D01*
X89606Y147828D01*
X84187Y147828D01*
X76545Y147828D02*
X76545Y131572D01*
X67514Y131572D02*
X76545Y147828D01*
X67514Y147828D02*
X67514Y131572D01*
X59871Y131572D02*
X59871Y147828D01*
X55356Y147828D01*
X55225Y147826D01*
X55093Y147820D01*
X54962Y147811D01*
X54832Y147797D01*
X54701Y147780D01*
X54572Y147759D01*
X54443Y147735D01*
X54315Y147706D01*
X54187Y147674D01*
X54061Y147638D01*
X53936Y147599D01*
X53811Y147556D01*
X53689Y147509D01*
X53567Y147459D01*
X53447Y147405D01*
X53329Y147348D01*
X53213Y147287D01*
X53098Y147223D01*
X52985Y147156D01*
X52874Y147085D01*
X52766Y147011D01*
X52659Y146934D01*
X52555Y146854D01*
X52453Y146771D01*
X52354Y146686D01*
X52257Y146597D01*
X52163Y146505D01*
X52071Y146411D01*
X51982Y146314D01*
X51897Y146215D01*
X51814Y146113D01*
X51734Y146009D01*
X51657Y145902D01*
X51583Y145794D01*
X51512Y145683D01*
X51445Y145570D01*
X51381Y145455D01*
X51320Y145339D01*
X51263Y145221D01*
X51209Y145101D01*
X51159Y144979D01*
X51112Y144857D01*
X51069Y144732D01*
X51030Y144607D01*
X50994Y144481D01*
X50962Y144353D01*
X50933Y144225D01*
X50909Y144096D01*
X50888Y143967D01*
X50871Y143836D01*
X50857Y143706D01*
X50848Y143575D01*
X50842Y143443D01*
X50840Y143312D01*
X50840Y136088D01*
X50842Y135957D01*
X50848Y135825D01*
X50857Y135694D01*
X50871Y135564D01*
X50888Y135433D01*
X50909Y135304D01*
X50933Y135175D01*
X50962Y135047D01*
X50994Y134919D01*
X51030Y134793D01*
X51069Y134668D01*
X51112Y134543D01*
X51159Y134421D01*
X51209Y134299D01*
X51263Y134179D01*
X51320Y134061D01*
X51381Y133945D01*
X51445Y133830D01*
X51512Y133717D01*
X51583Y133606D01*
X51657Y133498D01*
X51734Y133391D01*
X51814Y133287D01*
X51897Y133185D01*
X51982Y133086D01*
X52071Y132989D01*
X52163Y132895D01*
X52257Y132803D01*
X52354Y132714D01*
X52453Y132629D01*
X52555Y132546D01*
X52659Y132466D01*
X52766Y132389D01*
X52874Y132315D01*
X52985Y132244D01*
X53098Y132177D01*
X53213Y132113D01*
X53329Y132052D01*
X53447Y131995D01*
X53567Y131941D01*
X53689Y131891D01*
X53811Y131844D01*
X53936Y131801D01*
X54061Y131762D01*
X54187Y131726D01*
X54315Y131694D01*
X54443Y131665D01*
X54572Y131641D01*
X54701Y131620D01*
X54832Y131603D01*
X54962Y131589D01*
X55093Y131580D01*
X55225Y131574D01*
X55356Y131572D01*
X59871Y131572D01*
M02*
