G04 EAGLE Gerber RS-274X export*
G75*
%MOMM*%
%FSLAX34Y34*%
%LPD*%
%INSoldermask Bottom*%
%IPPOS*%
%AMOC8*
5,1,8,0,0,1.08239X$1,22.5*%
G01*
%ADD10P,1.649562X8X292.500000*%
%ADD11P,1.649562X8X22.500000*%
%ADD12P,1.649562X8X202.500000*%
%ADD13P,1.649562X8X112.500000*%
%ADD14C,2.082800*%
%ADD15C,1.611200*%
%ADD16C,1.711200*%
%ADD17C,1.524000*%
%ADD18C,0.959600*%


D10*
X322580Y419100D03*
X322580Y393700D03*
D11*
X321310Y215900D03*
X346710Y215900D03*
D12*
X185420Y114300D03*
X160020Y114300D03*
D10*
X398780Y478790D03*
X398780Y453390D03*
X104140Y478790D03*
X104140Y453390D03*
D13*
X368300Y351790D03*
X368300Y427990D03*
X133350Y351790D03*
X133350Y427990D03*
D10*
X398780Y427990D03*
X398780Y351790D03*
X104140Y427990D03*
X104140Y351790D03*
D14*
X146050Y20320D03*
X146050Y45720D03*
X406400Y76200D03*
X469900Y368300D03*
X469900Y342900D03*
X469900Y317500D03*
X469900Y292100D03*
X469900Y266700D03*
X469900Y241300D03*
X469900Y215900D03*
X469900Y190500D03*
X469900Y165100D03*
X469900Y139700D03*
X25400Y241300D03*
X25400Y215900D03*
X25400Y190500D03*
X25400Y165100D03*
X25400Y139700D03*
X25400Y368300D03*
X25400Y342900D03*
X25400Y317500D03*
X25400Y292100D03*
X25400Y266700D03*
X25400Y63500D03*
X25400Y88900D03*
X25400Y38100D03*
X115570Y96520D03*
X115570Y71120D03*
X115570Y45720D03*
X115570Y20320D03*
D15*
X197250Y50800D03*
X222250Y50800D03*
X247250Y50800D03*
X197250Y17800D03*
X222250Y17800D03*
X247250Y17800D03*
D14*
X408940Y20320D03*
X383540Y20320D03*
X358140Y20320D03*
X332740Y20320D03*
X307340Y20320D03*
X281940Y20320D03*
X203200Y480060D03*
X228600Y480060D03*
X254000Y480060D03*
X279400Y480060D03*
X304800Y480060D03*
X444500Y101600D03*
X444500Y76200D03*
X444500Y50800D03*
X444500Y25400D03*
D16*
X432200Y467360D03*
X482200Y467360D03*
X68180Y467360D03*
X18180Y467360D03*
D14*
X406400Y101600D03*
D17*
X222504Y419100D02*
X209296Y419100D01*
X209296Y393700D02*
X222504Y393700D01*
X222504Y368300D02*
X209296Y368300D01*
X209296Y342900D02*
X222504Y342900D01*
X222504Y317500D02*
X209296Y317500D01*
X209296Y292100D02*
X222504Y292100D01*
X222504Y266700D02*
X209296Y266700D01*
X209296Y241300D02*
X222504Y241300D01*
X222504Y215900D02*
X209296Y215900D01*
X209296Y190500D02*
X222504Y190500D01*
X222504Y165100D02*
X209296Y165100D01*
X209296Y139700D02*
X222504Y139700D01*
X222504Y114300D02*
X209296Y114300D01*
X209296Y88900D02*
X222504Y88900D01*
X285496Y88900D02*
X298704Y88900D01*
X298704Y114300D02*
X285496Y114300D01*
X285496Y139700D02*
X298704Y139700D01*
X298704Y165100D02*
X285496Y165100D01*
X285496Y190500D02*
X298704Y190500D01*
X298704Y215900D02*
X285496Y215900D01*
X285496Y241300D02*
X298704Y241300D01*
X298704Y266700D02*
X285496Y266700D01*
X285496Y292100D02*
X298704Y292100D01*
X298704Y317500D02*
X285496Y317500D01*
X285496Y342900D02*
X298704Y342900D01*
X298704Y368300D02*
X285496Y368300D01*
X285496Y393700D02*
X298704Y393700D01*
X298704Y419100D02*
X285496Y419100D01*
D18*
X127000Y457200D03*
X269240Y419100D03*
X168910Y363220D03*
X317500Y165100D03*
X381000Y101600D03*
X317500Y139700D03*
X381000Y76200D03*
X271780Y57150D03*
X320040Y50800D03*
M02*
