M48
;GenerationSoftware,Autodesk,EAGLE,9.6.2*%
;CreationDate,2022-04-17T03:55:33Z*%
FMAT,2
ICI,OFF
METRIC,TZ,000.000
T5C0.350
T4C0.813
T3C0.900
T2C1.000
T1C1.016
%
G90
M71
T1
X46990Y16510
X38354Y2032
X40894Y2032
X30480Y48006
X44450Y10160
X44450Y7620
X44450Y5080
X2540Y16510
X44450Y2540
X46990Y13970
X2540Y24130
X2540Y21590
X2540Y19050
X11557Y4572
X40640Y10160
X2540Y13970
X2540Y36830
X2540Y34290
X2540Y31750
X2540Y29210
X2540Y26670
X2540Y6350
X2540Y8890
X2540Y3810
X11557Y9652
X11557Y7112
X11557Y2032
X14605Y2032
X14605Y4572
X40640Y7620
X46990Y36830
X46990Y34290
X46990Y31750
X46990Y29210
X46990Y26670
X46990Y24130
X46990Y21590
X46990Y19050
X35814Y2032
X33274Y2032
X30734Y2032
X28194Y2032
X20320Y48006
X22860Y48006
X25400Y48006
X27940Y48006
T2
X48220Y46736
X6818Y46736
X1818Y46736
X43220Y46736
T3
X24725Y1780
X22225Y1780
X19725Y1780
X24725Y5080
X19725Y5080
X22225Y5080
T4
X18542Y11430
X32258Y41910
X32258Y39370
X32131Y21590
X34671Y21590
X16002Y11430
X39878Y47879
X39878Y45339
X10414Y47879
X10414Y45339
X36830Y35179
X36830Y42799
X13335Y35179
X13335Y42799
X39878Y42799
X39878Y35179
X10414Y42799
X10414Y35179
X21590Y41910
X21590Y39370
X21590Y36830
X21590Y34290
X21590Y31750
X21590Y29210
X21590Y26670
X21590Y24130
X21590Y21590
X21590Y19050
X21590Y16510
X21590Y13970
X21590Y11430
X21590Y8890
X29210Y8890
X29210Y11430
X29210Y13970
X29210Y16510
X29210Y19050
X29210Y21590
X29210Y24130
X29210Y26670
X29210Y29210
X29210Y31750
X29210Y34290
X29210Y36830
X29210Y39370
X29210Y41910
T5
X32004Y5080
X27178Y5715
X38100Y7620
X31750Y13970
X38100Y10160
X31750Y16510
X16891Y36322
X26924Y41910
X12700Y45720
M30